<svg version="1.1" id="Camada_1" xmlns="http://www.w3.org/2000/svg" x="0" y="0" viewBox="0 0 130 62" xml:space="preserve"><style>.st1{fill:#343a40}.st2{fill:#3a86bb}</style><path d="M-265.4 156.7c0 .4 0 .3 0 0zm.8 26.8z" fill="#1a1a1a"/><path class="st1" d="M6.7 43.5v-.8c-.7.6-1.6 1-2.5.9-2.3 0-4.2-1.9-4.2-4.3S1.9 35 4.2 35c1.6.1 3.1 1 3.8 2.5l-1.6.4c-.5-.8-1.3-1.3-2.2-1.2-1.4 0-2.5 1-2.5 2.4v.3c-.1 1.4 1 2.7 2.4 2.7h.3c.9.1 1.8-.3 2.3-1.1v-.6H4.5v-1.5h3.7v4.6H6.7zm2.8-8.3h5.8v1.5h-4.2v1.7h3.1V40h-3.1v2h4.2v1.5H9.5v-8.3zm8.2 5.8c.1.8.8 1.2 1.8 1.2s1.4-.3 1.4-1c0-1-1.1-1-2.1-1.2s-2.5-.7-2.5-2.5c0-1.7 1.2-2.4 3-2.4 1.4-.2 2.8.7 3.2 2.1l-1.6.4c-.2-.7-.9-1.2-1.7-1.1-.9 0-1.3.4-1.3.9 0 .8.9 1 2 1.2 1.1.2 2.6.7 2.6 2.5 0 1.6-1.1 2.5-3.1 2.5-1.4 0-3-.4-3.4-2.2l1.7-.4zm9.8-4.2v6.7h-1.6v-6.7h-2.6v-1.6h6.8v1.5l-2.6.1zM4.6 49.7c0-.7-.1-1.5-.1-2.1-.2.6-.4 1.2-.6 1.9L3 51.9h-.5l-.8-2.4c-.2-.7-.4-1.3-.6-1.9 0 .6-.1 1.5-.1 2.2l-.1 2.1H.3l.3-5h.8l.8 2.4c.3.7.5 1.2.6 1.7.1-.5.3-1 .5-1.7l.9-2.3H5l.3 5h-.6l-.1-2.3zm2.5-2.4c0 .2-.2.4-.4.4s-.4-.2-.4-.4.2-.4.4-.4.4.2.4.4zm-.7 4.6v-3.6H7v3.6h-.6zm1.7-2.6v-1h.6v.6c.2-.3.6-.7 1.2-.7.5 0 1.2.3 1.2 1.5v2.1h-.6v-2.1c0-.6-.2-1.1-.8-1.1-.4 0-.7.3-.9.7v2.4h-.7v-2.4zm4.7-2c0 .2-.2.4-.4.4s-.4-.2-.4-.4.2-.4.4-.4c.3 0 .4.2.4.4zm-.7 4.6v-3.6h.6v3.6h-.6zm1.7-.6c.2.1.5.3.8.3.5 0 .7-.2.7-.5s-.2-.5-.7-.7c-.6-.2-.9-.6-.9-1 0-.6.5-1 1.2-1 .4 0 .7.1.9.2l-.2.4c-.1-.1-.4-.2-.7-.2-.4 0-.6.2-.6.5s.2.4.7.6c.6.2.9.5.9 1.1 0 .6-.5 1.1-1.3 1.1-.4 0-.7-.1-1-.2l.2-.6zm3.7-4v1h.9v.5h-.9v1.9c0 .4.1.7.5.7h.4v.5c-.2.1-.3.1-.6.1s-.5-.1-.7-.3c-.2-.2-.2-.5-.2-.9v-1.9h-.5v-.5h.5v-.9l.6-.2zm1.9 3c0 .9.6 1.2 1.2 1.2.5 0 .7-.1 1-.2l.1.5c-.2.1-.6.2-1.2.2-1.1 0-1.7-.7-1.7-1.8s.6-1.9 1.7-1.9 1.5 1 1.5 1.7v.3h-2.6zm1.9-.5c0-.4-.2-1.1-.9-1.1-.6 0-.9.6-1 1.1h1.9zm.2-3l-.9 1.1h-.5l.6-1.1h.8zm1.2 2.7v-1.1h.6v.7c.2-.5.5-.8 1-.8h.2v.6h-.2c-.5 0-.8.3-.9.8v2.2h-.6v-2.4zm3.2-2.2c0 .2-.2.4-.4.4s-.4-.2-.4-.4.2-.4.4-.4.4.2.4.4zm-.8 4.6v-3.6h.6v3.6h-.6zm4.9-1.8c0 1.3-.9 1.9-1.8 1.9-1 0-1.7-.7-1.7-1.8 0-1.2.8-1.9 1.7-1.9 1.2 0 1.8.7 1.8 1.8zm-2.8 0c0 .8.4 1.4 1.1 1.4.6 0 1.1-.6 1.1-1.4 0-.6-.3-1.4-1.1-1.4s-1.1.8-1.1 1.4zm8.2-3.4v5.2h-.6v-.6c-.2.4-.6.7-1.2.7-.9 0-1.5-.7-1.5-1.8 0-1.2.7-1.9 1.6-1.9.5 0 .9.3 1.1.5v-2.1h.6zm-.6 3.1v-.3c-.1-.4-.4-.8-.9-.8-.7 0-1.1.6-1.1 1.4 0 .7.3 1.3 1 1.3.4 0 .8-.3.9-.8v-.8zm3.6 2.1l-.1-.4c-.2.3-.6.5-1.1.5-.7 0-1.1-.5-1.1-1 0-.9.8-1.3 2.1-1.3v-.1c0-.3-.1-.8-.8-.8-.3 0-.7.1-.9.3l-.1-.4c.3-.2.7-.3 1.2-.3 1.1 0 1.3.7 1.3 1.5v1.3c0 .3 0 .6.1.9h-.6zm0-1.8c-.7 0-1.5.1-1.5.8 0 .4.3.6.6.6.5 0 .7-.3.9-.6v-.8zm-6.7-8.2l-.6 1.7h-1.7l3.2-8.3h1.8l3.2 8.2H36l-.6-1.7-3.7.1zm0-7.5l-.3-1.2c.3-.3.7-.4 1.1-.4.7 0 1.2.4 1.9.4.3 0 .7-.1.9-.3l.3 1.2c-.3.3-.7.4-1.1.4-.7 0-1.2-.4-1.9-.4-.3 0-.7.1-.9.3zm2.4 4.2c-.3-.7-.6-1.4-.6-1.5 0 0-.3.7-.6 1.5l-.7 1.8h2.5l-.6-1.8zm8.1-3.5c2.3 0 4.2 2 4.2 4.3 0 2.4-1.9 4.3-4.3 4.2-2.3 0-4.2-1.9-4.2-4.3-.1-2.3 1.7-4.2 3.9-4.3.1.1.2.1.4.1zm0 7.1c1.5 0 2.7-1.2 2.8-2.7 0-1.5-1.2-2.8-2.6-2.8-1.5 0-2.7 1.2-2.8 2.7v.1c-.1 1.4 1 2.6 2.4 2.7 0-.1.1-.1.2 0zm8.2-7h5.8v1.5h-4.1v1.7h3.1V40h-3.1v2h4.2v1.5h-5.8l-.1-8.3zm8.3 5.8c.1.8.8 1.2 1.8 1.2s1.4-.3 1.4-1c0-1-1.1-1-2.1-1.2s-2.5-.7-2.5-2.5c0-1.7 1.2-2.4 3-2.4 1.4-.2 2.8.7 3.2 2.1l-1.5.5c-.2-.7-.9-1.2-1.7-1.1-.9 0-1.3.4-1.3.9 0 .8.9 1 2 1.2 1.1.2 2.6.7 2.6 2.5 0 1.6-1.1 2.5-3.1 2.5-1.4 0-3-.4-3.4-2.2l1.6-.5zm9.7-4.2v6.7h-1.6v-6.7h-2.6v-1.6H71v1.5l-2.6.1zm6.5 3.8h-1.2v2.9h-1.6v-8.3H75c2 0 3.2 1 3.2 2.7.1 1.1-.6 2-1.6 2.3l1.9 3.2h-1.9l-1.7-2.8zm.3-1.3c.9 0 1.4-.4 1.4-1.2s-.5-1.3-1.4-1.3h-1.4v2.5h1.4zm6.2 2.6l-.6 1.7H79l3.3-8.3h1.8l3.3 8.2h-1.7l-.7-1.7-3.6.1zm2.4-3.3c-.3-.7-.6-1.4-.6-1.5 0 0-.3.7-.6 1.5l-.6 1.8h2.5l-.7-1.8zm7-1.8v6.7h-1.6v-6.7h-2.6v-1.6h6.8v1.5l-2.6.1zm3.8-1.6h5.8v1.5h-4.2v1.7h3.1V40h-3.1v2h4.2v1.5h-5.8v-8.3zm2.1-.6l1.3-2 1.3.4-1.1 1.6h-1.5zm11 8.9v-.8c-.7.6-1.6 1-2.5.9-2.3 0-4.2-1.9-4.2-4.3s1.9-4.3 4.2-4.3c1.6-.1 3.1.9 3.8 2.3l-1.6.4c-.5-.8-1.3-1.3-2.2-1.2-1.4 0-2.5 1-2.5 2.4v.3c-.1 1.4 1 2.7 2.4 2.7h.3c.9.1 1.8-.3 2.3-1.1v-.6h-2.2v-1.5h3.7v4.6l-1.5.2zm2.8-8.3h1.6v8.2h-1.6v-8.2zm10.8 5.9c-1 2.1-3.5 3.1-5.6 2.1-2.1-1-3.1-3.5-2.1-5.7.7-1.5 2.2-2.5 3.8-2.5 1.6-.1 3.1.9 3.8 2.3l-1.6.4c-.8-1.3-2.5-1.6-3.7-.8-1.3.8-1.6 2.5-.8 3.8.8 1.3 2.5 1.6 3.7.8.4-.2.7-.6.9-1l1.6.6zm2.7.8l-.6 1.7h-1.7l3.3-8.2h1.8l3.3 8.2h-1.7l-.6-1.7H124zm2.4-3.3c-.3-.7-.6-1.4-.6-1.5 0 0-.3.7-.6 1.5l-.7 1.8h2.5l-.6-1.8z"/><path class="st2" d="M38.7 31.5c.6-.1 1-.2 0-.3-.6-.1-1.4-.1-1.4-.1h-2.5c.1-.2.1-.3.1-.5.1-.6.1-1.4.1-1.4v-21c-.2-.3-.4-.1-.5 0-.2-.1-.4-.1-.6-.1h-.3c-.4-.1-.9-.1-.9-.1h-3.2c-.3.2-.1.4 0 .5v.1c-.1.6-.1 1.4-.1 1.4v20.9l.1.1h-1.8c.1-.2.1-.3.1-.5.1-.6.1-1.4.1-1.4v-7.8c.3.2.4.2 0-.3v-6.4c-.2-.3-.4-.1-.5 0-.2-.1-.4-.1-.6-.1-.6-.1-1.4-.1-1.4-.1h-3.3c-.3.2-.1.4 0 .5h.1v.1c-.1.6-.1 1.4-.1 1.4V31l.1.1h-1.9c.1-.2.1-.3.1-.5.1-.6.1-1.4.1-1.4v-8.8c-.2-.3-.4-.1-.5 0-.2-.1-.4-.1-.6-.1-.6-.1-1.4-.1-1.4-.1h-3.3c-.3.2-.1.4 0 .5h.1v.1c-.1.6-.1 1.4-.1 1.4v9l.1.1H13c.1-.2.1-.3.1-.5.1-.6.1-1.4.1-1.4V25c-.2-.3-.4-.1-.5 0-.2-.1-.4-.1-.6-.1-.6-.1-1.4-.1-1.4-.1H7.6c-.3.2-.1.4 0 .5h.1V25c-.1.6-.1 1.4-.1 1.4V29h-.2l.1.2v1.6l.1.1H3c-.3.2-.1.4 0 .5h34.4c-.1 0 1.4.1 1.3.1zm-26.6-6.6c.2 0 .4 0 .6-.1V26c0-.1-.1-.2-.1-.2l-.4-.6-.2-.2.1-.1zm-1.4.1h.6l.1.2.3.4c.2.3.4.5.4.5l.3.3c.1 0 .1.1.2.1V28c-.1-.3-.3-.6-.4-.8l-.2-.3v-.2l-.3-.4c-.2-.2-.4-.5-.6-.7-.2-.2-.4-.4-.6-.5l.2-.1zm-.6 0v.3l.6.6c.2.2.4.4.6.7l.2.3.1.2.3.4c.2.3.4.6.4.5s.2.2.3.3v1c-.1-.3-.3-.5-.4-.8l-.2-.3-.3-.4c-.3-.4-.6-.9-1-1.3-.2-.2-.3-.4-.5-.6l-.6-.6-.2-.3h.7zm-1.8 6.1v-.2l-.2-.3-.1-.1v-.4l.3.3c.2.2.3.4.5.6h.1l-.6.1zm1 0c-.1-.2-.1-.3-.2-.4-.1-.3-.3-.5-.5-.7l-.3-.3c-.1-.1-.2-.2-.4-.3v-.6l.4.4.1.2.3.3.2.2.3.4c.2.3.5.5.5.5.1.1.3.2.4.3h-.8zm.9 0c.1-.1.1-.1 0 0-.1-.2-.2-.4-.3-.5l-.5-.8-.3-.4-.2-.4-.1-.2c-.2-.2-.4-.4-.7-.6H8v-.8l.1.1.3.3.7.7c.2.3.4.5.6.8l.2.3.5.6c.2.3.5.6.4.5.1.2.3.3.5.4.1 0 0-.1-.2-.6-.1-.3-.3-.6-.5-.8l-.2-.4-.3-.4c-.2-.3-.4-.5-.6-.8-.2-.3-.5-.5-.7-.8l-.3-.3-.2-.1-.1-.1H8v-.1s0-.5-.1-.9l.3.2.7.7c.2.2.4.5.6.8.4.5.8 1.1 1.2 1.6l.2.3.5.6c.2.3.5.6.4.5.1.2.3.3.5.4.1 0 0-.1-.2-.6s-.7-1.2-.7-1.2l-.3-.4c-.4-.5-.8-1.1-1.2-1.6-.2-.3-.4-.5-.6-.8-.2-.3-.5-.5-.7-.7-.2-.2-.3-.4-.5-.6h.7c.2.2.4.5.6.7l.6.6c.2.2.3.4.5.6.3.4.7.8 1 1.3l.2.3.5.6c.2.3.5.6.4.5l.3.3v.6c0 .2 0 .4.1.5h-2.8zM18 20.5h.6v.1l.1.1.3.3.4.4.1.1.1.1c.1.1.3.1.2-.2 0-.1-.1-.2-.1-.3 0 0-.2-.2-.4-.5l-.2-.2h.2c.2 0 .4 0 .6-.1v2.9-.1c-.1-.2-.3-.5-.5-.8l-.3-.4-.3-.4c-.2-.3-.5-.6-.8-.8v-.2zm-.5 0s0-.1 0 0zm-.4 0l.1.1.1.1.4.3c.3.2.5.5.7.8l.3.3.5.5c.2.3.5.5.5.5l.3.3v1.4c-.3-.5-.8-1.1-.8-1.1l-.3-.4-1.2-1.3c-.2-.2-.4-.4-.6-.7s-.4-.4-.7-.6l-.4-.3 1.1.1zm-1.7 0c.2.3.4.5.7.7s.4.4.6.6l.6.6 1.1 1.3.3.3.5.5.5.5.2.2v.8l-.4-.5-.3-.4-.3-.4c-.5-.5-1-1-1.4-1.6-.1-.1-.2-.3-.4-.4l-.4-.4-.8-.7-.6-.6h-.1v-.7l.2.2zm-.2 1.3l.3.3.8.7.4.3.4.4c.5.5 1 1 1.4 1.6l.3.3s.3.3.6.5c.2.2.4.3.6.4v1.2c0-.1-.1-.2-.2-.3-.3-.5-.9-1.1-.9-1.1l-.3-.4-1.2-1.3-.4-.2-.2-.2-.2-.2c-.2-.2-.5-.4-.7-.6-.2-.2-.4-.4-.5-.6h-.2v-.8zm-.1 9.3l.1-.1v-.2l.3.3h-.4zm.9 0c0-.1 0-.2-.1-.3l-.4-.4-.3-.3v-.9l.2.3.2.2.3.3s.2.3.5.5l.4.4-.8.2zm1.1 0l-.1-.2-.5-.7-.3-.4-.2-.4-.1-.2c-.2-.2-.3-.5-.5-.7h-.1v-.9l.4.5c.3.4.7.8 1 1.2l.3.3.5.5c.2.3.5.5.5.5.4.4.8.6.2-.2-.3-.5-.8-1.2-.8-1.2l-.3-.4c-.3-.4-.6-.8-1-1.2l-.6-.6h-.2v-.8l.2.2 2.4 3 .3.3 1 1.1.2.2-2.3.1zm2.4 0c-.1-.1-.1-.3-.2-.4-.3-.5-.7-1.2-.7-1.2l-.3-.4c-.8-1-1.6-2.1-2.4-3.1l-.3-.3-.3-.3v-.6l.2.3c.5.5 1 1 1.4 1.5l1.3 1.6.3.3.5.5.5.5c.1.1.3.3.5.4.1 0 0-.1-.3-.5-.2-.2-.4-.5-.5-.7l-.3-.4-.3-.4-1.3-1.6c-.5-.6-1-1-1.4-1.5l-.6-.6v-.7c.1.1.2.3.4.4.2.2.5.4.7.6l.1.1.1.2.3.3 1.2 1.3.3.3.6.3c.3.2.5.5.5.5.1.1.3.2.5.3v1.3s.1 1.5.1 1.4c0 .2 0 .4.1.5l-.7.1zm5.8-16.3h.4v.1l.2.2.4.4c.1.1.5.6.5.6l.2.2c.1.1.1.1.2.1.2.1.3.1.2-.2 0-.1-.1-.3-.2-.4 0 0-.2-.3-.5-.6l-.3-.4h.5c.2 0 .4 0 .6-.1v2.7c-.1-.2-.3-.5-.5-.7l-.3-.4-.3-.4c-.3-.4-.7-.7-1.1-1v-.1zm-2.9 0l.6.6 2.2 2.2.3.3.6.5c.3.2.5.5.5.4.5.4.8.6.2-.2-.3-.5-.9-1-.9-1l-.4-.3c-.7-.7-1.5-1.4-2.2-2.2l-.3-.3h1c.2.1.4.2.5.4.4.3.8.6 1.1 1l.3.3.2.2.4.4.5.5.2.2v2.6l-.1-.1-.3-.4-.4-.3c-.5-.5-1.1-1-1.6-1.5l-.8-.8-.1-.1-.1-.1-.2-.1-.4-.3c-.2-.2-.4-.4-.5-.6h-.1c0-.4-.1-1.1-.1-1.1l-.1-.2zm4.1 9.8c-.3-.5-.8-1.1-.8-1.1l-.3-.4-2.1-2.4-.3-.3-.2-.2-.2-.1v-.9l.3.3c1.1.9 2.1 1.9 3 2.9l.3.3.5.5.5.5.1.1v3.3c0-.1-.1-.2-.2-.3-.3-.5-.9-1.1-.9-1.1l-.3-.4c-.9-.9-1.8-1.9-2.6-2.9-.2-.2-.3-.5-.5-.7h-.2v-.8l.3.3c.7.7 1.4 1.5 2.1 2.3l.3.3.5.5.5.5c.1.1.3.3.5.3.1 0 0-.1-.3-.5zm.1-2.1l-.3-.4c-.9-1.1-1.9-2.1-3-3l-.3-.3-.4-.3v-.6l.5.5.6.5.6.5 1.1 1 .3.3s1.1 1 1.1.9c.5.4.8.5.2-.2-.3-.5-.9-1-.9-1l-.4-.3-1.1-1-.6-.5c-.2-.2-.4-.3-.6-.5l-.6-.6h-.2v-.7l.3.3c.3.2.6.5.8.7l.8.7c.5.5 1.1 1 1.6 1.5l.3.3.6.5.3.2v2.5c-.4-.6-.7-1.1-.7-1zm-4.2 8.6l.1-.1v-.4l.1.1.4.4.1.1-.7-.1zm1.1 0V31c0-.1-.1-.2-.1-.3l-.4-.5-.4-.4h-.1v-.4l.3.4c.2.2.4.5.6.6l.3.3.3.2.2.1-.7.1zm1 0l-.1-.1c-.1-.2-.2-.4-.4-.6l-.3-.3c-.1-.2-.3-.4-.5-.6-.2-.2-.3-.4-.5-.6-.1-.2-.2-.3-.2-.3h-.1v-1.4c.1.2.3.4.4.5l.1.1.1.1.1.2.3.3.5.7.3.3.5.5.5.5c.1.1.3.3.5.3.1 0 0-.1-.3-.5l-.8-1.1-.3-.4-.5-.7-.3-.3-.1-.2-.1-.1-.1-.1c-.2-.2-.3-.4-.5-.7h-.3v-1.2c.2.1.3.3.4.4l.3.3.2.2.1.2.6.7 1.2 1.4.3.3.5.5.5.5c.5.4.8.6.2-.2-.3-.5-.8-1.1-.8-1.1l-.3-.4-1.2-1.4-.6-.7V26l-.2-.2-.3-.3c-.2-.2-.4-.4-.7-.6h-.1v-1.1l.1.1.1.1.1.1.3.3c.7.8 1.4 1.6 2.2 2.3l.3.3.5.5.5.5c.5.4.8.6.2-.2-.3-.5-.8-1.1-.8-1.1l-.3-.4c-.7-.8-1.4-1.6-2.2-2.3l-.5-.4v-.1l-.1-.1-.1-.1h-.2v-1.1l.3.4c.8 1 1.7 2 2.6 3l.3.3.5.5c.3.2.5.5.5.5.1.1.3.2.5.3V29s.1 1.5.1 1.4c0 .2 0 .4.1.5l-3 .2zm10-22.8V9l-.3-.3-.2-.2c.2 0 .4-.1.5-.2zm-2 .3h.8l.1.1c.1.1.2.2.3.4l.3.3.2.2.2.1h.1v1.2l-.1-.1c-.2-.2-.4-.5-.5-.7l-.3-.4-.4-.3c-.3-.2-.5-.5-.8-.7l-.1-.1h.2zm-1.2 0c.3.1.5.2.7.4.3.2.5.4.8.6l.3.3.5.5c.3.2.5.5.5.5l.3.2v1.2l-.5-.6-.3-.3-.4-.3c-.9-.8-1.9-1.7-2.9-2.5l-.1-.1 1.1.1zm-1.6.2l.3.3c1 .8 1.9 1.6 2.9 2.5l.3.3.6.5.6.4.1.1V14h-.1c-.4-.4-1-.9-1-.9l-.4-.3-1.3-1-.3-.3-.1-.1-.1-.1-.2-.1c-.2-.2-.5-.3-.7-.4-.2-.1-.4-.3-.5-.5h-.2v-.2c.2 0 .1-1 .1-1.3zm4.2 16.3c.5.3.9.5.2-.2l-.6-.6-.3-.3-.4-.3c-.8-.7-1.6-1.5-2.4-2.2l-.6-.6v-.6l.3.2.6.4.3.1.3.2c.4.3.7.6 1.1 1l.3.3.6.5c.3.2.6.5.5.4.2.1.3.2.5.3.1 0 0-.1-.3-.5l-.6-.7-.3-.4-.4-.3c-.4-.3-.7-.7-1.1-1l-.3-.2-.3-.3-.6-.4c-.2-.2-.4-.3-.6-.5v-.9l.3.2c.9.7 1.7 1.4 2.5 2.1l.3.3.6.4.6.4c.1.1.3.1.4.2v4.8l-.1-.1c-.3-.5-.9-1-.9-1l-.3-.3-1.4-1.3-.7-.7-.7-.7-.6-.6h-.1v-.7l.3.3c.8.7 1.6 1.5 2.4 2.2l.3.3.6.4c.4.1.7.3.6.4zm.4-3.4l-1-.9-.4-.3c-.8-.7-1.7-1.4-2.5-2.1-.2-.2-.4-.3-.6-.5v-.8c.2.2.3.3.5.4l.3.2.3.2.6.5 1.2 1.1.3.3.6.4.6.4.3.2v1.1l-.2-.2zm0-1.4l-1-1-.3-.3-1.2-1.1-.6-.5-.3-.3-.3-.2c-.2-.2-.4-.3-.6-.5h-.2v-1l.5.4c.8.7 1.6 1.3 2.4 2l.3.2.6.4.6.4.4.2v1.3h-.3zm0-1.6l-1-1-.3-.3c-.8-.7-1.6-1.4-2.5-2l-.7-.5h-.1V14l.2.2.4.2c.7.5 1.5 1.1 2.1 1.7l.3.3.6.4.6.4c.2.1.3.2.5.3V19l-.1-.3zm-.1-1.8l-1-1-.4-.3c-.7-.6-1.4-1.2-2.2-1.7l-.4-.3c-.1-.1-.2-.2-.3-.2h-.2v-.6l.2.1.4.2c.8.5 1.5 1 2.3 1.6l.3.3.6.4.6.4.4.2v1.3c-.1-.2-.2-.3-.3-.4zm.1-1.3c-.4-.4-1-.9-1-.9l-.3-.4c-.7-.6-1.5-1.1-2.3-1.6l-.4-.2-.4-.2h-.1v-1.4l.1.1c.1.1.2.2.4.3.2.2.5.3.7.5l.2.1.1.1.1.1.3.3 1.3 1 .3.3.6.4.6.4.2.1V16l-.4-.4zm-4.6 15.5l.1-.1v-.2l.1.1.1.1.2.1h.1-.6zm.8 0s.1-.1 0-.2c0-.1-.1-.2-.1-.3l-.1-.1c-.1-.1-.2-.2-.2-.3l-.1-.1-.2-.1v-.8l.3.3c.2.2.4.4.5.6l.2.3.3.2c.1.1.2.1.2.2.2.2.4.2.2-.2l-.3-.6-.2-.2c-.1-.2-.3-.4-.5-.6-.2-.2-.3-.4-.4-.6-.1-.2-.2-.3-.2-.3v-.7l.3.4c.2.3.5.6.8.9l.3.3.5.5c.3.2.5.5.5.5.5.4.8.6.2-.2-.2-.2-.4-.5-.6-.7l-.3-.4-.3-.4c-.3-.3-.5-.6-.7-.9-.2-.3-.3-.5-.5-.7h-.2v-1.2c.2.2.4.4.6.5l.1.1.2.2.3.3.6.7c.4.5.8.9 1.1 1.4l.3.3.5.5c.2.3.5.5.5.5.1.2.3.3.5.4.1 0 0-.1-.3-.5s-.8-1.1-.8-1.1l-.3-.4c-.4-.5-.8-1-1.2-1.4-.2-.2-.4-.5-.6-.7l-.4-.4-.2-.2-.1-.1-.3-.3-.3-.3h-.3v-1l.3.2.3.3.3.3.6.6 1.2 1.2.3.3.5.5.5.5c.4.4.8.6.2-.2-.3-.5-.8-1.1-.8-1.1l-.3-.4-1.2-1.2-.6-.6-.3-.3-.3-.3-.6-.6v-.7l.3.3.7.7.7.7 1.4 1.3.3.3s1.1 1 1.1.9l.3.2V29s.1 1.5.1 1.4c0 .2 0 .4.1.5h-4.4z"/><path class="st2" d="M34.1 31.6h34.4c.1-.1.3-.3 0-.5h-4.6l.1-.1v-1.6l.1-.2H64v-2.6s0-.8-.1-1.4v-.1h.1c.1-.1.3-.3 0-.5h-3.2s-.8.1-1.4.1c-.2 0-.4 0-.6.1-.1-.1-.3-.3-.5 0v4.4s0 .8.1 1.4c0 .2 0 .4.1.5h-1.9l.1-.1v-9s0-.8-.1-1.4v-.1h.1c.1-.1.3-.3 0-.5h-3.2s-.8.1-1.4.1c-.2 0-.4 0-.6.1-.1-.1-.3-.3-.5 0v9s0 .8.1 1.4c0 .2 0 .4.1.5h-1.8l.1-.1V16.3s0-.8-.1-1.4v-.1h.1c.1-.1.3-.3 0-.5h-3.4s-.8.1-1.4.1c-.2 0-.4 0-.6.1-.1-.1-.3-.3-.5 0V21c-.4.5-.3.5 0 .3v7.8s0 .8.1 1.4c0 .2 0 .4.1.5H42l.1-.1V10s0-.8-.1-1.4c.1-.1.3-.3 0-.5h-3.3s-.5 0-1.1.1h-.3c-.2 0-.4 0-.6.1-.1-.1-.3-.3-.5 0v20.9s0 .8.1 1.4c0 .2 0 .4.1.5h-2.5s-.8.1-1.4.1c-1 .1-.6.2 0 .3.1 0 1.6.1 1.6.1zM59.4 25l-.2.2-.4.6c0 .1-.1.2-.1.2v-1.2c.2.1.4.1.6.1l.1.1zm1.5 0c-.2.2-.4.3-.6.5-.2.2-.4.5-.6.7l-.3.4-.1.1-.2.3c-.1.2-.3.5-.4.8v-1.6c.1 0 .1 0 .2-.1l.3-.3s.2-.3.4-.5l.3-.4.1-.2h.6l.3.3zm1.1 0l-.3.3-.6.6c-.2.2-.4.4-.5.6-.3.4-.7.9-1 1.3l-.3.4-.2.4c-.1.2-.3.5-.4.8v-1l.3-.3c.1-.1.2-.3.4-.5l.3-.4.1-.2.2-.3c.2-.2.4-.4.6-.7l.6-.6v-.3l.8-.1zm.5 6.1l.1-.1c.2-.2.3-.4.5-.6l.3-.3v.4l-.1.1-.2.3v.2h-.6zm-1.2 0c.2-.1.3-.2.4-.3l.5-.5.3-.4.2-.2.3-.3.1-.2.4-.4v.6c-.1.1-.3.2-.4.3l-.3.3c-.2.2-.4.4-.5.6-.1.1-.1.3-.2.4l-.8.1zm-2.8 0c.1-.2.1-.4.1-.5V30l.3-.3s.2-.3.4-.5l.5-.6.2-.3c.3-.4.6-.9 1-1.3.2-.2.3-.4.5-.6l.6-.6c.2-.2.4-.4.6-.7h.7c-.1.2-.3.4-.5.6l-.7.7c-.2.3-.4.5-.6.8-.4.5-.8 1.1-1.2 1.6l-.3.4s-.4.7-.7 1.2c-.3.5-.3.6-.2.6.2-.1.3-.2.5-.4 0 0 .2-.2.4-.5l.5-.6.2-.3c.4-.5.8-1.1 1.2-1.6.2-.3.4-.5.6-.8s.4-.5.7-.7l.3-.3c0 .4-.1.9-.1.9v.1l-.1.1-.1.1h-.2l-.3.3c-.3.2-.5.5-.7.8-.2.3-.4.5-.6.8l-.3.4-.2.4c-.1.2-.3.5-.5.8-.2.4-.3.6-.2.6.2-.1.3-.2.5-.4 0 0 .2-.2.4-.5l.5-.6.2-.3c.2-.3.4-.5.6-.8.2-.2.4-.5.7-.7l.3-.3.1-.1v.8h-.1c-.2.2-.5.4-.7.6l-.2.2-.3.4-.3.4-.5.8c-.1.1-.2.3-.3.4v.1h-2.7zm-4.9-10.6l-.2.2-.8.8-.3.4-.3.4c-.1.2-.3.5-.5.8v.1-2.9c.2.1.4.1.6.1h.2l-.2.2c-.2.2-.4.5-.4.5 0 .1-.1.2-.1.3 0 .3.1.3.2.2l.1-.1.1-.1.4-.4.3-.3.1-.1v-.1h.8zm.3 0s0-.1 0 0zm1.4 0l-.3.3c-.2.2-.4.4-.7.6-.2.2-.4.4-.6.7l-1.2 1.3-.3.4s-.5.6-.8 1.1v-1.4l.3-.3.5-.5.5-.5.3-.3c.2-.3.5-.5.7-.8l.4-.3.1-.1.1-.1 1-.1zm1 0v.7h-.1l-.6.6-.8.7-.4.4-.4.4c-.5.5-1 1-1.4 1.6l-.3.4-.3.2-.5.5v-.8l.2-.2.5-.5.5-.5.3-.3 1.1-1.3c.2-.2.4-.5.6-.6s.4-.4.6-.6c.2-.2.4-.4.7-.6v-.1h.3zm-.1 1.5v.6H56c-.1.2-.3.4-.5.6-.2.2-.4.4-.7.6l-.2.2-.2.2-.3.3-1.2 1.3-.5.4s-.5.6-.9 1.1c-.1.2-.2.3-.2.3v-1.2h.1c.2-.1.4-.3.6-.4.3-.2.6-.5.6-.5l.3-.3c.5-.5 1-1 1.4-1.6.1-.1.2-.3.4-.4l.4-.4.8-.7.3-.3v.2zm-.3 9.1l.3-.3v.2l.1.1h-.4zm-1.2 0l.4-.4.5-.5.3-.3.2-.2.2-.3v.6l-.1.1-.3.3-.4.4c0 .1-.1.2-.1.3h-.7zm-2.5 0l.2-.2c0 .1 1-1.1 1-1.1l.3-.3c.8-1 1.6-2.1 2.4-3l.2-.2v.7h-.2l-.6.7c-.3.4-.7.8-1 1.2l-.3.4s-.5.7-.8 1.2c-.5.8-.2.6.2.2l.5-.5.5-.5.3-.3c.3-.4.6-.8 1-1.2l.4-.5v.9h-.1c-.1.2-.3.5-.5.7l-.1.2-.3.4-.3.4-.5.7-.1.2-2.2-.1zm-.9 0c.1-.2.1-.4.1-.5 0 .1.1-1.4.1-1.4v-1.3c.2-.1.3-.2.5-.3l.5-.5.5-.5.3-.3 1.2-1.3.3-.3.1-.2.1-.1c.2-.2.5-.4.7-.6.1-.1.3-.2.4-.4v.6l-.6.6c-.5.5-1 1-1.4 1.5l-1.3 1.6-.4.4-.3.4c-.2.2-.4.5-.5.7-.3.4-.3.5-.3.5.2-.1.3-.2.5-.4l.5-.5.5-.5.3-.3 1.3-1.6c.4-.5.9-1 1.4-1.5l.2-.3v.6l-.3.3-.1.5c-.8 1-1.6 2-2.4 3.1l-.3.4s-.4.7-.7 1.2c-.2.1-.2.3-.3.4h-.6zm-4.9-16.3c-.4.3-.8.6-1.1 1l-.3.4-.3.4c-.2.2-.4.5-.5.7v-2.7c.2.1.4.1.6.1h.5l-.3.4c-.3.3-.5.6-.5.6-.1.1-.1.3-.2.4-.1.3.1.3.2.2.1 0 .1-.1.2-.1l.2-.2s.2-.3.5-.6c.2-.3.3-.3.4-.4l.2-.2v-.1h.4v.1zm2.6 0v.1s0 .7-.1 1.1h-.1c-.1.2-.3.4-.5.6l-.4.4-.2.2-.1.1-.1.1-.9.6c-.5.5-1.1 1-1.6 1.5l-.4.3-.3.4-.1.1v-2.6l.2-.2.5-.5.4-.4.2-.2.3-.3c.3-.4.7-.7 1.1-1 .2-.1.4-.3.5-.4h.9l-.3.4c-.7.7-1.5 1.4-2.2 2.2l-.4.3s-.5.6-.9 1c-.6.8-.2.6.2.2 0 0 .2-.2.5-.4l.6-.5.3-.3c.7-.7 1.5-1.4 2.2-2.2l.7-.6zm-4.3 10.4c.2-.1.4-.2.5-.3l.5-.5.5-.5.3-.3c.7-.8 1.4-1.6 2.1-2.3l.3-.3v.8h-.2c-.2.2-.3.5-.5.7-.8 1-1.7 2-2.6 2.9l-.3.4s-.5.6-.9 1.1c-.1.1-.2.3-.2.3v-3.3l.1-.1.5-.5.5-.5.3-.3c.9-1 1.9-2 3-2.9l.3-.3v.9l-.2.1-.2.2-.3.3c-.8.7-1.5 1.6-2.1 2.4l-.3.4s-.5.6-.8 1.1c-.3.4-.5.4-.3.5zm-.5-1.8v-2.5l.3-.2.6-.5.3-.3c.5-.5 1.1-1 1.6-1.5l.8-.7c.2-.2.6-.4.8-.7l.3-.3v.7h-.2l-.6.6c-.2.2-.4.3-.6.5l-.6.5-1.1 1-.4.3s-.5.6-.9 1c-.6.7-.3.6.2.2 0 .1 1.1-.9 1.1-.9l.3-.3 1.1-1 .6-.5.6-.5c.2-.1.4-.3.5-.5v.6l-.4.3-.2.3c-1.1.9-2.1 1.9-3 3l-.3.4c-.1 0-.6.5-.8 1zm4.1 7.7l.1-.1.4-.4.1-.1v.5l.1.1h-.7zm-1 0l.2-.1.3-.2.3-.3c.1-.2.4-.4.6-.6l.3-.4v.4h-.1l-.4.4-.4.4c-.1.1-.1.2-.1.3v.1h-.7zm-3.3 0c.1-.2.1-.4.1-.5 0 .1.1-1.4.1-1.4v-1.9c.2-.1.3-.2.5-.3l.5-.5.5-.5.3-.3c.9-.9 1.8-1.9 2.6-3l.3-.4v1.1h-.2l-.1.1-.1.1-.1.1-.3.4c-.7.8-1.5 1.6-2.2 2.3l-.3.4s-.5.6-.8 1.1c-.6.8-.2.6.2.2l.5-.5.5-.5.3-.3c.7-.8 1.4-1.6 2.2-2.3l.3-.3.1-.1.1-.1.1-.1V25H49c-.2.2-.5.4-.7.6l-.3.3-.2.1-.2.2-.6.7-1.2 1.4-.3.4s-.5.6-.8 1.1c-.6.8-.2.6.2.2l.5-.5.5-.5.3-.3 1.2-1.4.6-.7.1-.2.2-.2.3-.3.4-.4v1.2h-.3c-.1.2-.3.5-.5.7l-.1.1-.1.1v.1l-.3.3-.5.7-.3.4-.8 1.1c-.3.4-.3.5-.3.5.2-.1.4-.2.5-.3l.5-.5.5-.5.3-.3.5-.7.3-.3.1-.2.1-.1.1-.1c.1-.2.3-.3.4-.5v1.3H49s-.1.1-.2.3c-.2.2-.3.4-.5.6-.2.2-.4.4-.5.6l-.3.3c-.1.2-.3.4-.4.6v.1l-3.1.1zM37.5 8.5l-.2.2-.3.2v-.6c.1 0 .2.1.5.2zm1.6.1H39c-.3.2-.5.4-.8.7l-.4.3-.3.4c-.2.2-.4.5-.5.7l-.1.1V9.6h.1l.2-.1.2-.2.3-.3c.1-.1.3-.3.3-.4l.1-.1h.8l.2.1zm2.1 0l-.2.1c-1 .8-2 1.7-2.9 2.5l-.4.3-.3.3-.5.6v-1.3l.3-.2.5-.5.5-.5.3-.3c.2-.2.5-.4.8-.6.2-.2.5-.3.7-.4h1.2zm.5.2c0 .4-.1 1.3-.1 1.3v.1h-.2c-.1.2-.3.4-.5.5-.2.2-.4.3-.7.4l-.2.1v.2l-.3.3-1.3 1-.4.3s-.6.5-1 .9l-.1.1v-1.3l.1-.1.6-.4.6-.5.3-.3c.9-.8 1.9-1.7 2.9-2.5l.3-.1zm-3.6 15.8l.5-.5.3-.3c.8-.7 1.6-1.5 2.4-2.2l.3-.3v.7l-.6.6-.7.7-.7.7-1.4 1.3-.3.3s-.5.6-.9 1l-.1.1V22c.1-.1.3-.1.4-.2l.6-.4.6-.4.3-.3c.9-.7 1.7-1.5 2.5-2.1l.3-.2v.9c-.2.2-.4.4-.6.5l-.6.4-.3.2-.3.2c-.4.3-.8.7-1.1 1l-.3.4-.4.4-.6.7c-.3.4-.4.5-.3.5.2-.1.4-.2.5-.3 0 0 .3-.2.5-.4l.6-.5.3-.3c.4-.3.7-.7 1.1-1l.3-.2.3-.2.6-.4.3-.2v.6l-.6.6c-.8.7-1.6 1.5-2.4 2.2l-.4.3-.3.3-.6.6c-.7.7-.3.5.2.2-.1.1.2-.1.6-.3zm-1.2-2.7v-1.1l.3-.2.6-.4.6-.4.3-.3 1.2-1.1.6-.5.3-.2.3-.2c.2-.1.3-.3.5-.4v.8c-.2.2-.4.4-.6.5-.9.7-1.7 1.4-2.5 2.1l-.4.3-1 .9-.2.2zm0-1.4v-1.3l.4-.2.6-.4.6-.4.3-.3c.8-.7 1.6-1.4 2.4-2l.5-.4v1h-.2c-.2.2-.4.4-.6.5l-.3.2-.3.3-.7.5-1.2 1-.4.4-1 1-.1.1zm0-1.6v-1.5c.2-.1.4-.1.5-.3l.6-.4.6-.4.3-.3c.7-.6 1.4-1.2 2.1-1.7l.4-.2.2-.2v.9h-.1l-.7.5c-.8.7-1.6 1.4-2.5 2l-.3.4-1 1-.1.2zm0-1.6V16l.4-.2.6-.4.6-.4.3-.3c.7-.6 1.5-1.1 2.3-1.6l.4-.2.2-.1v.6h-.2c-.1.1-.2.2-.3.2l-.4.3c-.8.5-1.5 1.1-2.2 1.7l-.4.3-1 1c-.1.1-.2.2-.3.4zm0-1.6v-1.4l.2-.1.6-.4.6-.4.3-.3 1.3-1 .3-.3.1-.1.1-.1.2-.1c.2-.1.4-.3.7-.5.1-.1.3-.2.4-.3l.1-.1V12h-.1l-.4.2-.4.2c-.8.5-1.6 1-2.3 1.6l-.4.3s-.6.5-1 .9l-.3.5zm4.3 15.4h.1l.2-.1.1-.1.1-.1v.2l.1.1h-.6zm-4.5 0c.1-.2.1-.4.1-.5 0 .1.1-1.4.1-1.4v-1.9l.3-.2c0 .1 1.1-.9 1.1-.9l.3-.3 1.4-1.3.7-.7.7-.7.3-.3v.7l-.6.6-.3.3-.3.3-.6.6-1.2 1.2-.3.4s-.5.6-.8 1.1c-.6.8-.2.6.2.2l.5-.5.5-.5.3-.3 1.2-1.2.6-.6.3-.3.3-.3.3-.2v1h-.3l-.3.3-.3.3-.1.1-.2-.1-.3.3c-.2.2-.4.5-.6.7-.4.5-.8.9-1.2 1.4l-.3.4s-.5.7-.8 1.1l-.3.5c.2-.1.4-.2.5-.4l.5-.5.5-.5.3-.3c.4-.5.8-.9 1.1-1.4l.6-.7.3-.3.2-.2.1-.1c.2-.2.4-.3.6-.5v1.2h-.2c-.2.2-.3.5-.5.7-.2.2-.5.6-.7.9l-.4.5-.3.4c-.2.2-.4.5-.6.7-.6.8-.2.6.2.2l.5-.5.5-.5.3-.3c.3-.3.5-.6.8-.9l.3-.4v.7s-.1.1-.2.3c-.1.2-.3.4-.4.6-.2.2-.4.4-.5.6l-.2.3-.3.6c-.2.4 0 .4.2.2.1-.1.2-.1.2-.2l.3-.2.2-.3c.1-.2.3-.4.5-.6v-.3.6l-.1.1-.1.1c-.1.1-.2.2-.2.3l-.1.1c-.1.1-.1.2-.1.3-.1.1 0 .2 0 .2l-4.2.2zm89.9.4c.6-.1 1-.2 0-.3-.6-.1-1.4-.1-1.4-.1h-2.5c.1-.2.1-.3.1-.5.1-.6.1-1.4.1-1.4V8.3c-.2-.3-.4-.1-.5 0-.2-.1-.4-.1-.6-.1h-.3c-.5-.1-1.1-.1-1.1-.1h-3.3c-.3.2-.1.4 0 .5v.1c-.1.6-.1 1.4-.1 1.4V31l.1.1h-1.8c.1-.2.1-.3.1-.5.1-.6.1-1.4.1-1.4v-7.8c.3.2.4.2 0-.3v-6.4c-.2-.3-.4-.1-.5 0-.2-.1-.4-.1-.6-.1-.6-.1-1.4-.1-1.4-.1h-1.3.3-1.9c-.3.2-.1.4 0 .5h.1v.1c-.1.6-.1 1.4-.1 1.4v14.6l.1.1h-1.8c.1-.2.1-.3.1-.5.1-.6.1-1.4.1-1.4v-8.8c-.2-.3-.4-.1-.5 0-.2-.1-.4-.1-.6-.1-.6-.1-1.4-.1-1.4-.1h-3.2c-.3.2-.1.4 0 .5h.1v.1c-.1.6-.1 1.4-.1 1.4v9l.1.1h-1.8c.1-.2.1-.3.1-.5.1-.6.1-1.4.1-1.4v-4.4c-.2-.3-.4-.1-.5 0-.2-.1-.4-.1-.6-.1-.6-.1-1.4-.1-1.4-.1h-3.2c-.3.2-.1.4 0 .5h.1v.1c-.1.6-.1 1.4-.1 1.4V29h-.1l.1.2v1.6l.1.1h-4.6c-.3.2-.1.4 0 .5h34.4c-.1 0 1 .2 1 .1zM100 25c.2 0 .4 0 .6-.1V26c0-.1-.1-.2-.1-.2l-.4-.6-.2-.2h.1zm-1.4.1h.6l.1.2.3.4c.2.3.4.5.4.5l.3.3c.1 0 .1.1.2.1V28c-.1-.3-.3-.6-.4-.8l-.2-.3-.1-.1-.3-.4c-.2-.2-.4-.5-.6-.7-.2-.2-.4-.4-.6-.5l.3-.1zm-.6 0v.3l.6.6c.2.2.4.4.6.7l.2.3.1.2.3.4c.2.3.4.6.4.5s.2.2.3.3v1c-.1-.3-.3-.5-.4-.8l-.2-.4-.3-.4c-.3-.4-.6-.9-1-1.3-.2-.2-.3-.4-.5-.6l-.6-.6-.3-.3.8.1zm-1.8 6v-.2l-.2-.3-.1-.1v-.4l.3.3c.2.2.3.4.5.6l.1.1h-.6zm1 0c-.1-.2-.1-.3-.2-.4-.2-.2-.3-.4-.5-.6l-.3-.3c-.1-.1-.2-.2-.4-.3v-.6l.4.4.1.2.3.3.2.2.3.4c.2.3.5.5.5.5.1.1.3.2.4.3l-.8-.1zm.9 0c-.1-.2-.2-.4-.3-.5l-.5-.8-.3-.4-.3-.4-.1-.2c-.2-.2-.4-.4-.7-.6h-.1v-.8l.1.1.3.3.7.7c.2.3.4.5.6.8l.2.3.5.6c.2.3.5.6.4.5.1.2.3.3.5.4.1 0 0-.1-.2-.6-.1-.3-.3-.6-.5-.8l-.2-.4-.3-.3c-.2-.3-.4-.5-.6-.8-.2-.3-.5-.5-.7-.8l-.3-.3-.2-.1-.1-.1-.1-.1v-.1s0-.5-.1-.9l.3.3.7.7c.2.2.4.5.6.8.4.5.8 1.1 1.2 1.6l.2.3.5.6c.2.3.5.6.4.5.1.2.3.3.5.4.1 0 0-.1-.2-.6s-.7-1.2-.7-1.2l-.3-.4c-.4-.5-.8-1.1-1.2-1.6-.2-.3-.4-.5-.6-.8-.2-.3-.5-.5-.7-.7-.2-.2-.3-.4-.5-.6h.6c.2.2.4.5.6.7l.6.6c.2.2.3.4.5.6.3.4.7.8 1 1.3l.2.3.5.6c.2.3.5.6.4.5l.3.3v.6c0 .2 0 .4.1.5h-2.7zm7.7-10.6h.6v.1l.1.1.3.3.4.4.1.1.1.1c.1.1.3.1.2-.2 0-.1-.1-.2-.1-.3 0 0-.2-.2-.4-.5l-.2-.2h.2c.2 0 .4 0 .6-.1v2.9-.1c-.1-.2-.3-.5-.5-.8l-.3-.4-.3-.4c-.2-.3-.5-.6-.8-.8v-.2zm-.4 0zm-.5 0l.1.1.1.1.4.3c.3.2.5.5.7.8l.3.3.5.5c.2.3.5.5.5.5l.3.3v1.4c-.3-.5-.8-1.1-.8-1.1l-.3-.4-1.1-1.3c-.2-.2-.4-.4-.6-.7-.2-.2-.4-.4-.7-.6l-.4-.3 1 .1zm-1.6 0c0 .1 0 .1 0 0 .2.3.4.5.7.7s.4.4.6.6l.6.6 1.1 1.3.3.3.5.5.5.5.2.2v.8l-.4-.5-.3-.4-.3-.4c-.5-.5-1-1-1.4-1.6-.1-.1-.2-.3-.4-.4l-.4-.4-.8-.7-.6-.6h-.2v-.7l.3.2zm-.2 1.4l.3.3.8.7.4.4.4.4c.5.5 1 1 1.4 1.6l.3.3s.3.3.6.5c.2.2.4.3.6.4h.1v1.2c0-.1-.1-.2-.2-.3-.3-.5-.9-1.1-.9-1.1l-.3-.4-1.2-1.3-.3-.3-.2-.2-.2-.2c-.2-.2-.5-.4-.7-.6-.2-.2-.4-.4-.5-.6h-.2l-.2-.8zm-.1 9.2l.1-.1v-.2l.3.3h-.4zm.9 0c0-.1 0-.2-.1-.3l-.4-.4-.3-.3-.1-.1v-.8l.2.3.2.2.3.3s.2.3.5.5l.4.4-.7.2zm1.1 0l-.1-.2-.5-.7-.3-.4-.3-.4-.1-.2c-.2-.2-.3-.5-.5-.7h-.1v-.9l.4.5c.3.4.7.8 1 1.2l.3.3.5.5c.2.3.5.5.5.5.4.4.8.6.2-.2-.3-.5-.8-1.2-.8-1.2l-.3-.4c-.3-.4-.6-.8-1-1.2l-.6-.7h-.2v-.8l.2.2 2.4 3 .3.3 1 1.1.2.2-2.2.2zm2.3 0c-.1-.1-.1-.3-.2-.4-.3-.5-.7-1.2-.7-1.2l-.3-.4c-.8-1-1.6-2.1-2.4-3.1l-.3-.3-.3-.3v-.6l.2.3c.5.5 1 1 1.4 1.5l1.3 1.6.3.3.5.5.5.5c.1.1.3.3.5.4.1 0 0-.1-.3-.5-.2-.2-.4-.5-.5-.7l-.3-.4-.3-.4-1.3-1.6c-.5-.6-1-1-1.4-1.5l-.6-.6v-.7c.1.1.2.3.4.4.2.2.5.4.7.6l.1.1.1.2.3.3 1.2 1.3.3.3.5.5c.3.2.5.5.5.5.1.1.3.2.5.3v1.3s.1 1.5.1 1.4c0 .2 0 .4.1.5l-.6-.1zm5.8-16.2h.4v.1l.2.2.4.4c.1.1.5.6.5.6l.2.2c.1.1.1.1.2.1.2.1.3.1.2-.2 0-.1-.1-.3-.2-.4 0 0-.2-.3-.5-.6l-.3-.4h.5c.2 0 .4 0 .6-.1v2.7c-.1-.2-.3-.5-.5-.7l-.3-.4-.5-.4c-.3-.4-.7-.7-1.1-1l.2-.1zm-2.8 0l.6.6 2.2 2.2.3.3.6.5c.3.2.5.5.5.4.5.4.8.6.2-.2-.3-.5-.9-1-.9-1l-.4-.3c-.7-.7-1.5-1.4-2.2-2.2l-.3-.3h.9c.2.1.4.2.5.4.4.3.8.6 1.1 1l.3.3.2.2.4.4.5.5.2.2v2.6l-.1-.1-.3-.4-.4-.3c-.5-.5-1.1-1-1.6-1.5l-.8-.7-.1-.1-.1-.1-.2-.2-.4-.3c-.2-.2-.4-.4-.5-.6h-.1c0-.4-.1-1.1-.1-1.1v-.2zm4 9.8c-.3-.5-.8-1.1-.8-1.1l-.3-.4-2.1-2.4-.3-.3-.2-.2-.2-.1v-.9l.3.3c1.1.9 2.1 1.9 3 2.9l.3.3.5.5.5.5.1.1v3.3c0-.1-.1-.2-.2-.3-.3-.5-.9-1.1-.9-1.1l-.3-.4c-.9-.9-1.8-1.9-2.6-2.9-.2-.2-.3-.5-.5-.7h-.2V21l.3.3c.7.7 1.4 1.5 2.1 2.3l.3.3.5.5.5.5c.1.1.3.3.5.3.1 0 .1-.2-.3-.5zm.1-2.2l-.3-.4c-.9-1.1-1.9-2.1-3-3l-.3-.3-.4-.3V18l.5.5.6.5.6.5 1.1 1 .3.3s1.1 1 1.1.9c.5.4.8.5.2-.2-.3-.5-.9-1-.9-1l-.4-.3-1.1-1-.6-.5c-.2-.2-.4-.3-.6-.5l-.6-.6h-.2v-.7l.3.3c.3.2.6.5.8.7l.8.7c.5.5 1.1 1 1.6 1.5l.3.3.6.5.3.2v2.5c-.3-.6-.6-1.1-.7-1.1zm-4.1 8.6l.1-.1v-.4l.1.1.4.4.1.1-.7-.1zm1 0V31c0-.1-.1-.2-.1-.3l-.4-.4-.4-.4h-.1v-.4l.3.4c.2.2.4.5.6.6l.3.3.3.2.2.1h-.7zm1 0l-.1-.1c-.1-.2-.2-.4-.4-.6l-.3-.3c-.1-.2-.3-.4-.5-.6-.2-.2-.3-.4-.5-.6-.1-.2-.2-.3-.2-.3h-.1v-1.4c.1.2.3.4.4.5l.1.1.1.1.1.2.3.3.5.7.3.3.5.5.5.5c.1.1.3.3.5.3.1 0 0-.1-.3-.5l-.8-1.1-.3-.4-.5-.7-.3-.3-.1-.2-.1-.1-.1-.1c-.2-.2-.3-.4-.5-.7h-.3v-1.2c.2.1.3.3.4.4l.3.3.2.2.1.2.6.7 1.2 1.4.3.3.5.5.5.5c.5.4.8.6.2-.2-.3-.5-.8-1.1-.8-1.1l-.3-.4-1.1-1.4-.6-.7-.2-.2-.2-.2-.3-.3c-.2-.2-.4-.4-.7-.6h-.1v-1.1l.1.1.1.1.1.1.3.3c.7.8 1.4 1.6 2.2 2.3l.3.3.5.5.5.5c.5.4.8.6.2-.2-.3-.5-.8-1.1-.8-1.1l-.3-.4c-.7-.8-1.4-1.6-2.2-2.3l-.3-.4-.1-.1-.1-.1-.1-.1h-.2v-1.1l.3.4c.8 1 1.7 2 2.6 3l.3.3.5.5c.3.2.5.5.5.5.1.1.3.2.5.3v1.8s.1 1.5.1 1.4c0 .2 0 .4.1.5l-3 .3zm10.1-22.7V9l-.4-.3-.2-.2c.3 0 .5 0 .6-.1zm-2 .2h.8l.1.1c.1.1.2.2.3.4l.3.3.2.2.2.1h.1v1.2l-.1-.1c-.2-.2-.4-.5-.5-.7l-.3-.4-.4-.3c-.3-.2-.5-.5-.8-.7l-.1-.1h.2zm-1.1 0c.2.1.5.3.7.4.3.2.5.4.8.6l.3.3.5.5c.3.2.5.5.5.5l.3.2v1.2l-.5-.6-.3-.3-.4-.3c-.9-.8-1.9-1.7-2.9-2.5l-.1-.1 1.1.1zm-1.7.3l.3.3c1 .8 1.9 1.6 2.9 2.5l.3.3.6.5.6.4.1.1v1.3l-.1-.1c-.4-.4-1-.9-1-.9l-.4-.3-1.3-1-.3-.3-.1-.1-.1-.1-.2-.1c-.2-.2-.5-.3-.7-.4-.2-.1-.4-.3-.5-.5h-.2v-.1c.2-.3.2-1.2.1-1.5zm4.2 16.2c.5.3.9.5.2-.2l-.6-.6-.3-.3-.4-.3c-.8-.7-1.6-1.5-2.4-2.2l-.6-.6v-.6l.3.2.6.4.3.2.3.2c.4.3.7.6 1.1 1l.3.3.6.5c.3.2.6.5.5.4.2.1.3.2.5.3.1 0 0-.1-.3-.5l-.6-.7-.3-.4-.4-.3c-.4-.3-.7-.7-1.1-1l-.3-.2-.3-.2-.6-.4c-.2-.2-.4-.3-.6-.5v-.9l.3.2c.9.7 1.7 1.4 2.5 2.1l.3.3.6.4.6.4c.1.1.3.1.4.2V27l-.1-.1c-.3-.5-.9-1-.9-1l-.3-.3-1.4-1.3-.7-.7-.7-.7-.6-.6h-.1v-.7l.3.3c.8.7 1.6 1.5 2.4 2.2l.3.3.6.4c.4.1.6.3.6.3zm.4-3.4l-1-.9-.4-.3c-.8-.7-1.7-1.4-2.5-2.1-.2-.2-.4-.3-.6-.5V17c.2.2.3.3.5.4l.3.2.3.2.6.5 1.2 1.1.3.3.6.4.6.4.3.2v1.1l-.2-.1zm.1-1.3l-1-1-.4-.3-1.2-1.1-.6-.5-.3-.3-.3-.2c-.2-.2-.4-.3-.6-.5h-.2v-1l.5.4c.8.7 1.6 1.3 2.4 2l.3.3.6.4.6.4.4.2v1.3l-.2-.1zm0-1.6l-1-1-.4-.3c-.8-.7-1.6-1.4-2.5-2l-.7-.5h-.1v-1l.2.2.4.2c.7.5 1.5 1.1 2.1 1.7l.3.3.6.4.6.4c.2.1.3.2.5.3V19v-.2zm-.2-1.9l-1-1-.4-.3c-.7-.6-1.4-1.2-2.2-1.7l-.4-.3c-.1-.1-.2-.2-.3-.2h-.2v-.6l.2.1.4.2c.8.5 1.5 1 2.3 1.6l.3.3.6.4.6.4.4.2v1.3c-.1-.2-.2-.3-.3-.4zm.2-1.3c-.4-.4-1-.9-1-.9l-.4-.3c-.7-.6-1.5-1.1-2.3-1.6l-.4-.2-.4-.2h-.1V11l.1.1c.1.1.2.2.4.3.2.2.5.3.7.5l.2.1.1.1.1.1.3.3 1.3 1 .3.3.6.4.6.4.2.1v1.4l-.3-.5zm-4.7 15.5l.1-.1v-.2l.1.1.1.1.2.1h.1-.6zm.8 0s.1-.1 0-.2c0-.1-.1-.2-.1-.3l-.1-.1c-.1-.1-.2-.2-.2-.3l-.1-.1-.1-.1v-.7l.3.3c.2.2.4.4.5.6l.2.3.3.2c.1.1.2.1.2.2.2.2.4.2.2-.2l-.3-.6-.2-.3c-.1-.2-.3-.4-.5-.6s-.3-.4-.4-.6c-.1-.2-.2-.3-.2-.3v-.7l.3.4c.2.3.5.6.8.9l.3.3.5.5c.3.2.5.5.5.5.5.4.8.6.2-.2-.2-.2-.4-.5-.6-.7l-.3-.4-.3-.4c-.3-.3-.5-.6-.7-.9s-.3-.5-.5-.7h-.2v-1.2c.2.2.4.4.6.5l.1.1.2.2.3.3.6.7c.4.5.8.9 1.1 1.4l.3.3.5.5c.2.3.5.5.5.5.1.2.3.3.5.4.1 0 0-.1-.3-.5s-.8-1.1-.8-1.1l-.3-.4c-.4-.5-.8-1-1.2-1.4-.2-.2-.4-.5-.6-.7l-.3-.3-.2-.2-.1-.1-.3-.3-.3-.3h-.3v-1l.3.2.3.3.3.3.6.6 1.2 1.2.3.3.5.5.5.5c.4.4.8.6.2-.2-.3-.5-.8-1.1-.8-1.1l-.3-.4-1.2-1.2-.6-.6-.3-.3-.3-.3-.6-.6v-.7l.3.3.7.7.7.7 1.4 1.3.3.3s1.1 1 1.1.9l.3.2v1.9s.1 1.5.1 1.4c0 .2 0 .4.1.5l-4.6.1z"/><path class="st2" d="M63.8 31.6h34.4c.1-.1.3-.3 0-.5h-4.6l.1-.1v-1.6l.1-.2h-.1v-2.6s0-.8-.1-1.4v-.1h.1c.1-.1.3-.3 0-.5h-3.2s-.8.1-1.4.1c-.2 0-.4 0-.6.1-.1-.1-.3-.3-.5 0v4.4s0 .8.1 1.4c0 .2 0 .4.1.5h-1.8l.1-.1v-9s0-.8-.1-1.4v-.1h.1c.1-.1.3-.3 0-.5h-3.2s-.8.1-1.4.1c-.2 0-.4 0-.6.1-.1-.1-.3-.3-.5 0v9s0 .8.1 1.4c0 .2 0 .4.1.5h-1.8l.1-.1V16.3s0-.8-.1-1.4v-.1h.1c.1-.1.3-.3 0-.5h-3.5s-.8.1-1.4.1c-.2 0-.4 0-.6.1-.1-.1-.3-.3-.5 0V21c-.4.5-.3.5 0 .3v7.8s0 .8.1 1.4c0 .2 0 .4.1.5h-1.8l.1-.1V10s0-.8-.1-1.4c.1-.1.3-.3 0-.5h-3.2s-.5 0-1.1.1h-.3c-.2 0-.4 0-.6.1-.1-.1-.3-.3-.5 0v20.9s0 .8.1 1.4c0 .2 0 .4.1.5h-2.6s-.8.1-1.4.1c-1 .1-.6.2 0 .3.1 0 1.6.1 1.6.1zM89.1 25l-.2.2-.4.6c0 .1-.1.2-.1.2v-1.2c.2.1.4.1.6.1l.1.1zm1.4 0c-.2.2-.4.3-.6.5-.2.2-.4.5-.6.7l-.3.4v.2l-.2.3c-.1.2-.3.5-.4.8v-1.6c.1 0 .1 0 .2-.1l.3-.3s.2-.3.4-.5l.3-.4.1-.2h.6l.2.2zm1.2 0l-.3.3-.6.6c-.2.2-.4.4-.5.6-.3.4-.7.9-1 1.3l-.3.4-.2.4c-.1.2-.3.5-.4.8v-1l.3-.3c.1-.1.2-.3.4-.5l.3-.4.1-.2.2-.3c.2-.2.4-.4.6-.7l.6-.6v-.3l.8-.1zm.5 6.1l.1-.1c.2-.2.3-.4.5-.6l.3-.3v.4l-.1.1-.2.3v.2h-.6zm-1.3 0c.2-.1.3-.2.4-.3l.5-.5.3-.4.2-.2.3-.3.1-.2.4-.4v.6c-.1.1-.3.2-.4.3l-.3.3c-.2.2-.4.4-.5.6-.1.1-.1.3-.2.4l-.8.1zm-2.7 0c.1-.2.1-.4.1-.5V30l.3-.3s.2-.3.4-.5l.5-.6.2-.3c.3-.4.6-.9 1-1.3.2-.2.3-.4.5-.6l.6-.6c.2-.2.4-.4.6-.7h.6c-.1.2-.3.4-.5.6l-.7.7c-.2.3-.4.5-.6.8-.4.5-.8 1.1-1.2 1.6l-.3.4s-.4.7-.7 1.2c-.3.5-.3.6-.2.6.2-.1.3-.2.5-.4 0 0 .2-.2.4-.5l.5-.6.2-.3c.4-.5.8-1.1 1.2-1.6.2-.3.4-.5.6-.8.2-.2.4-.5.7-.7l.3-.3c0 .4-.1.9-.1.9v.1H93l-.1.1-.2.1-.3.3c-.3.2-.5.5-.7.8-.2.3-.4.5-.6.8l-.3.4-.2.4c-.1.2-.3.5-.5.8-.2.4-.3.6-.2.6.2-.1.3-.2.5-.4 0 0 .2-.2.4-.5l.5-.6.2-.3c.2-.3.4-.5.6-.8.2-.2.4-.5.7-.7l.3-.3.1-.1v.8H93c-.2.2-.5.4-.7.6l-.1.2-.3.4-.3.4-.5.8c-.1.1-.2.3-.3.4v.1h-2.6zm-5-10.6l-.2.2-.8.8-.3.4-.3.4c-.1.2-.3.5-.5.8v.1-2.9c.2.1.4.1.6.1h.2l-.2.2c-.2.2-.4.5-.4.5 0 .1-.1.2-.1.3 0 .3.1.3.2.2l.1-.1.1-.1.4-.4.3-.3.1-.1v-.1h.8zm.4 0s0-.1 0 0zm1.4 0l-.4.3c-.2.2-.4.4-.7.6-.2.2-.4.4-.6.7l-1.1 1.3-.3.4s-.5.6-.8 1.1v-1.4l.3-.3.5-.5.5-.5.3-.3c.2-.3.5-.5.7-.8l.4-.3.1-.1.1-.1 1-.1zm1 0v.7h-.1l-.6.6-.8.7-.4.4-.4.4c-.5.5-1 1-1.4 1.6l-.3.4-.3.4-.5.3v-.8l.2-.2.5-.5.5-.5.3-.3 1.1-1.3c.2-.2.4-.5.6-.6s.4-.4.6-.6.4-.4.7-.6v-.1h.3zm-.1 1.5v.6h-.2c-.1.2-.3.4-.5.6-.2.2-.4.4-.7.6l-.2.2-.2.2-.3.3-1.2 1.3-.3.4s-.5.6-.9 1.1c-.1.2-.2.3-.2.3v-1.2h.1c.2-.1.4-.3.6-.4.3-.2.6-.5.6-.5l.3-.3c.5-.5 1-1 1.4-1.6.1-.1.2-.3.4-.4l.4-.4.8-.7.3-.3-.2.2zm-.3 9.1l.3-.3v.2l.1.1h-.4zm-1.3 0l.4-.4.5-.5.3-.3.2-.2.2-.3v.6l-.1.1-.3.3-.4.4c0 .1-.1.2-.1.3h-.7zm-2.5 0l.2-.2c0 .1 1-1.1 1-1.1l.3-.3c.8-1 1.6-2.1 2.4-3l.2-.2v.7h-.2l-.6.7c-.3.4-.7.8-1 1.2l-.3.4s-.5.7-.8 1.2c-.5.8-.2.6.2.2l.5-.5.5-.5.3-.3c.3-.4.6-.8 1-1.2l.4-.5v.9h-.1c-.1.2-.3.5-.5.7l-.1.2-.2.3-.3.4-.5.7-.1.2h-2.3zm-.9 0c.1-.2.1-.4.1-.5 0 .1.1-1.4.1-1.4v-1.3c.2-.1.3-.2.5-.3l.5-.5.5-.5.3-.3 1.2-1.3.3-.3.1-.2.1-.1c.2-.2.5-.4.7-.6.1-.1.3-.2.4-.4v.6l-.6.6c-.5.5-1 1-1.4 1.5l-1.3 1.6-.3.4-.3.4c-.2.2-.4.5-.5.7-.3.4-.3.5-.3.5.2-.1.3-.2.5-.4l.5-.5.5-.5.3-.3 1.3-1.6c.4-.5.9-1 1.4-1.5l.2-.3v.6l-.3.3-.1.5c-.8 1-1.6 2-2.4 3.1l-.3.4s-.4.7-.7 1.2c-.1.1-.2.3-.2.4h-.8zm-4.8-16.3c-.4.3-.8.6-1.1 1l-.3.4-.3.4c-.2.2-.4.5-.5.7v-2.7c.2.1.4.1.6.1h.5l-.3.4c-.3.3-.5.6-.5.6-.1.1-.1.3-.2.4-.1.3.1.3.2.2.1 0 .1-.1.2-.1l.2-.2s.2-.3.5-.6c.2-.3.3-.3.4-.4l.2-.2v-.1h.4v.1zm2.6 0v.1s0 .7-.1 1.1h-.1c-.1.2-.3.4-.5.6l-.5.4-.2.2-.1.1-.1.1-.8.6c-.5.5-1.1 1-1.6 1.5l-.4.3-.3.4-.1.1v-2.6l.2-.2.5-.5.4-.4.2-.2.3-.3c.3-.4.7-.7 1.1-1 .2-.1.4-.3.5-.4h.9l-.3.3c-.7.7-1.5 1.4-2.2 2.2l-.4.3s-.5.6-.9 1c-.6.8-.2.6.2.2 0 0 .2-.2.5-.4l.6-.5.3-.3c.7-.7 1.5-1.4 2.2-2.2l.7-.5zm-4.4 10.4c.2-.1.4-.2.5-.3l.5-.5.5-.5.3-.3c.7-.8 1.4-1.6 2.1-2.3l.3-.3v.8h-.2c-.2.2-.3.5-.5.7-.8 1-1.7 2-2.6 2.9l-.3.4s-.5.6-.9 1.1c-.1.1-.2.3-.2.3v-3.3l.1-.1.5-.5.5-.5.3-.3c.9-1 1.9-2 3-2.9l.3-.3v.9l-.2.1-.2.2-.3.3c-.8.7-1.5 1.6-2.1 2.4l-.3.4s-.5.6-.8 1.1c-.3.4-.4.4-.3.5zm-.5-1.8v-2.5l.3-.2.6-.5.3-.3c.5-.5 1.1-1 1.6-1.5l.8-.7c.2-.2.6-.4.8-.7l.3-.3v.7h-.2l-.6.6c-.2.2-.4.3-.6.5l-.5.5-1.1 1-.4.3s-.5.6-.9 1c-.6.7-.3.6.2.2 0 .1 1.1-.9 1.1-.9l.3-.3 1.1-1 .6-.5.6-.5c.2-.1.4-.3.5-.5v.6l-.4.3-.3.3c-1.1.9-2.1 1.9-3 3l-.3.4s-.5.5-.8 1zm4.2 7.7l.1-.1.4-.4.1-.1v.5l.1.1H78zm-1 0l.2-.1.3-.2.3-.3c.1-.2.4-.4.6-.6l.3-.4v.4h-.1l-.4.4-.4.4c-.1.1-.1.2-.1.3v.1H77zm-3.4 0c.1-.2.1-.4.1-.5 0 .1.1-1.4.1-1.4v-1.9c.2-.1.3-.2.5-.3l.5-.5.5-.5.3-.3c.9-.9 1.8-1.9 2.6-3l.3-.4v1.1h-.2l-.1.1-.1.1-.1.1-.3.4c-.7.8-1.5 1.6-2.2 2.3l-.3.4s-.5.6-.8 1.1c-.6.8-.2.6.2.2l.5-.5.5-.5.3-.3c.7-.8 1.4-1.6 2.2-2.3l.3-.3.1-.1.1-.1.1-.1V25h-.3c-.2.2-.5.4-.7.6l-.3.3-.1.1-.2.2-.6.7-1.2 1.4-.3.3s-.5.6-.8 1.1c-.6.8-.2.6.2.2l.5-.5.5-.5.3-.3 1.2-1.4.6-.7.1-.2.2-.2.3-.3.4-.4v1.2h-.3c-.1.2-.3.5-.5.7l-.1.1-.1.1-.1.2-.3.3-.5.7-.3.4-.8 1.1c-.3.4-.3.5-.3.5.2-.1.4-.2.5-.3l.5-.5.5-.5.3-.3.5-.7.3-.3.1-.2.1-.1.1-.1c.1-.2.3-.3.4-.5v1.3h-.1s-.1.1-.2.3c-.2.2-.3.4-.5.6-.2.2-.4.4-.5.6l-.2.3c-.1.2-.3.4-.4.6v.1l-3 .1zM67.1 8.5l-.1.1-.3.3v-.6c0 .1.2.1.4.2zm1.7.1l-.1.1c-.3.2-.5.4-.8.7l-.4.3-.3.3c-.2.2-.4.5-.5.7l-.1.1V9.6h.1l.2-.1.1-.2.3-.3c.1-.1.3-.3.3-.4l.1-.1h.8l.3.1zm2 0l-.1.1c-1 .8-2 1.7-2.9 2.5l-.4.3-.3.3-.5.6v-1.3l.3-.2.5-.5.5-.5.3-.3c.3-.2.5-.4.8-.6.2-.2.5-.3.7-.4h1.1zm.6.2c0 .4-.1 1.3-.1 1.3v.1h-.2c-.1.2-.3.4-.5.5-.2.2-.4.3-.7.4l-.2.1-.1.1-.1.1-.3.3-1.3 1-.2.3s-.6.5-1 .9l-.1.1v-1.3l.1-.1.6-.4.6-.5.3-.3c.9-.8 1.8-1.6 2.8-2.4l.4-.2zm-3.7 15.8l.6-.4.3-.3c.8-.7 1.6-1.5 2.4-2.2l.3-.3v.7h-.1l-.6.6-.6.7-.7.7-1.4 1.3-.3.3s-.5.6-.9 1l-.1.1V22c.1-.1.3-.1.4-.2l.6-.4.6-.4.3-.3c.9-.7 1.7-1.5 2.5-2.1l.3-.2v.9c-.2.2-.4.4-.6.5l-.6.4-.3.2-.3.2c-.4.3-.8.7-1.1 1l-.4.5-.3.4-.6.7c-.3.4-.4.5-.3.5.2-.1.4-.2.5-.3 0 0 .3-.2.5-.4l.6-.5.3-.3c.4-.3.7-.7 1.1-1l.3-.2.3-.2.6-.4.3-.2v.6l-.6.6c-.8.7-1.6 1.5-2.4 2.2l-.3.2-.3.3-.7.7c-.7.7-.3.5.2.2-.1 0 .2-.2.5-.4zm-1.1-2.7v-1.1l.3-.2.6-.4.6-.4.3-.3 1.2-1.1.6-.5.3-.2.3-.2c.2-.1.3-.3.5-.4v.8c-.2.2-.4.4-.6.5-.9.7-1.7 1.4-2.5 2.1l-.4.3-1 .9-.2.2zm0-1.4v-1.3l.4-.2.6-.4.6-.4.3-.3c.8-.7 1.6-1.4 2.4-2l.5-.4v1h-.2c-.2.2-.4.4-.6.5l-.3.2-.3.3-.8.5-1.2 1-.4.3-1 1v.2zm0-1.6v-1.5c.2-.1.4-.1.5-.3l.6-.4.6-.4.3-.3c.7-.6 1.4-1.2 2.1-1.7l.4-.2.2-.2v.9h-.1l-.7.5c-.8.7-1.6 1.4-2.5 2l-.4.3-1 1v.3zm0-1.6V16l.4-.2.6-.4.6-.4.3-.3c.7-.6 1.5-1.1 2.3-1.6l.4-.2.2-.1v.6h-.2c-.1.1-.2.2-.3.2l-.4.3c-.8.5-1.5 1.1-2.2 1.7l-.4.3-1 1c-.2.1-.3.2-.3.4zm0-1.6v-1.4l.2-.1.6-.4.6-.4.3-.3 1.3-1 .3-.3.1-.1.1-.1.2-.1c.2-.1.4-.3.7-.5.1-.1.3-.2.4-.3l.1-.1V12h-.1l-.4.2-.4.2c-.8.5-1.6 1-2.3 1.6l-.4.3s-.6.5-1 .9l-.3.5zm4.2 15.4h.1l.2-.1.1-.1.1-.1v.2l.1.1h-.6zm-4.4 0c.1-.2.1-.4.1-.5 0 .1.1-1.4.1-1.4v-1.9l.3-.2c0 .1 1.1-.9 1.1-.9l.3-.3 1.4-1.3.7-.7.7-.7.3-.3v.7l-.6.6-.3.3-.3.3-.6.6-1.2 1.2-.4.2s-.5.6-.8 1.1c-.6.8-.2.6.2.2l.5-.5.5-.5.3-.3 1.2-1.2.6-.6.3-.3.3-.3.3-.2v1h-.3l-.3.3-.3.3-.1.1-.2.1-.3.3c-.2.2-.4.5-.6.7-.4.5-.8.9-1.2 1.4l-.3.4s-.5.7-.8 1.1l-.3.5c.2-.1.4-.2.5-.4l.5-.5.5-.5.3-.3c.4-.5.8-.9 1.1-1.4l.6-.7.3-.3.2-.2.1-.1c.2-.2.4-.3.6-.5v1.2h-.2c-.2.2-.3.5-.5.7s-.5.6-.7.9l-.3.4-.3.4c-.2.2-.4.5-.6.7-.6.8-.2.6.2.2l.5-.5.5-.5.3-.3c.3-.3.5-.6.8-.9l.3-.4v.7s-.1.1-.2.3c-.1.2-.3.4-.4.6-.2.2-.4.4-.5.6l-.2.4-.3.6c-.2.4 0 .4.2.2.1-.1.2-.1.2-.2l.3-.2.2-.3c.1-.2.3-.4.5-.6l.3-.3v.6l-.1.1-.1.1c-.1.1-.2.2-.2.3l-.1.1c-.1.1-.1.2-.1.3-.1.1 0 .2 0 .2l-4.5.2z"/><path class="st1" d="M45 51.8c-.2.1-.7.2-1.3.2-1.4 0-2.4-.9-2.4-2.5s1-2.6 2.6-2.6c.6 0 1 .1 1.2.2l-.2.5c-.2-.1-.6-.2-1-.2-1.1 0-1.9.7-1.9 2 0 1.2.7 2 1.9 2 .4 0 .8-.1 1-.2l.1.6zm1.5-4.5c0 .2-.2.4-.4.4s-.4-.2-.4-.4.2-.4.4-.4.4.2.4.4zm-.7 4.6v-3.6h.6v3.6h-.6zm4.7-5.2v5.2H50v-.6c-.2.4-.6.7-1.2.7-.9 0-1.5-.7-1.5-1.8 0-1.2.7-1.9 1.6-1.9.5 0 .9.3 1.1.5v-2.1h.5zm-.6 3.1v-.3c-.1-.4-.4-.8-.9-.8-.7 0-1.1.6-1.1 1.4 0 .7.3 1.3 1 1.3.4 0 .8-.3.9-.8v-.8zm3.6 2.1l-.1-.4c-.2.3-.6.5-1.1.5-.7 0-1.1-.5-1.1-1 0-.9.8-1.3 2.1-1.3v-.1c0-.3-.1-.8-.8-.8-.3 0-.7.1-.9.3l-.1-.4c.3-.2.7-.3 1.2-.3 1.1 0 1.3.7 1.3 1.5v1.3c0 .3 0 .6.1.9h-.6zm-.1-1.8c-.7 0-1.5.1-1.5.8 0 .4.3.6.6.6.5 0 .7-.3.9-.6v-.8zm4.7-3.4v5.2h-.6v-.6c-.2.4-.6.7-1.2.7-.9 0-1.5-.7-1.5-1.8 0-1.2.7-1.9 1.6-1.9.5 0 .9.3 1.1.5v-2.1h.6zm-.6 3.1v-.3c-.1-.4-.4-.8-.9-.8-.7 0-1.1.6-1.1 1.4 0 .7.3 1.3 1 1.3.4 0 .8-.3.9-.8v-.8zm3.6 2.1l-.1-.4c-.1.2-.5.5-1 .5-.7 0-1.1-.5-1.1-1 0-.9.8-1.3 2.1-1.3v-.1c0-.3-.1-.8-.8-.8-.3 0-.7.1-.9.3l-.1-.4c.3-.2.7-.3 1.2-.3 1.1 0 1.3.7 1.3 1.5v1.3c0 .3 0 .6.1.9h-.7zm-.1-1.8c-.7 0-1.5.1-1.5.8 0 .4.3.6.6.6.5 0 .7-.3.9-.6v-.8zm1.7-.8v-1h.6v.6c.2-.3.6-.7 1.2-.7.5 0 1.2.3 1.2 1.5v2.1h-.6v-2.1c0-.6-.2-1.1-.8-1.1-.4 0-.7.3-.9.7v2.4h-.6v-2.4zm4.7-2c0 .2-.2.4-.4.4s-.4-.2-.4-.4.2-.4.4-.4c.3 0 .4.2.4.4zm-.7 4.6v-3.6h.6v3.6h-.6zm3.7 0l-.1-.4c-.2.3-.6.5-1.1.5-.7 0-1.1-.5-1.1-1 0-.9.8-1.3 2.1-1.3v-.1c0-.3-.1-.8-.8-.8-.3 0-.7.1-.9.3l-.1-.4c.3-.2.7-.3 1.2-.3 1.1 0 1.3.7 1.3 1.5v1.3c0 .3 0 .6.1.9h-.6zm-.1-1.8c-.7 0-1.5.1-1.5.8 0 .4.3.6.6.6.5 0 .7-.3.9-.6v-.8z"/></svg>