<svg version="1.1" id="Camada_1" xmlns="http://www.w3.org/2000/svg" x="0" y="0" viewBox="0 0 130 36.3" xml:space="preserve"><style>.st1{fill:#3a86bb}.st2{fill:#363c3f}</style><path d="M-265.4 143.9c0 .4 0 .3 0 0zm.8 26.7z" fill="#1a1a1a"/><path class="st1" d="M14.5 19.5l.5.5.3.3.3.3c.3.4.7.7 1 1.1l.2.2.2.2.3.4V22l-.1-.1s-.2-.2-.4-.3l-.4-.4-.2-.2-.7-1c-.1-.2-.3-.3-.4-.4-.1-.1-.3-.3-.5-.4-.2-.1-.3-.3-.5-.4v-.1h-.2v.5h.1l.5.3zm-.5 6.4c0 .1 0 .1 0 0l.2.1-.2-.2v.1zm1.4-6.6c.2.2.3.3.4.5l.8.9.2.3s.3.4.6.7v-1l-.2-.2-.3-.3-.4-.4-.2-.2c-.2-.2-.3-.4-.5-.5l-.3-.2-.1-.1h-.7l.3.2c.1 0 .2.2.4.3zm-.8 1.3c.2.1.3.3.5.4l.1.1.1.1.2.2.9.9.2.2s.4.4.6.7c.1.1.1.2.2.2v-.8c-.1-.1-.3-.2-.4-.3-.2-.2-.4-.3-.4-.3l-.2-.2c-.3-.4-.7-.7-1-1.1l-.3-.3-.3-.2-.6-.5-.2-.2v.5h.1c.2.4.3.5.5.6zm-.2 4.7l-.2-.2-.1-.2-.1-.2v.5l.1.1.2.2.3.3c0 .1.1.1.1.2h.5l-.3-.3c-.3-.2-.5-.4-.5-.4zm7.7-6.8l-.2-.2c-.4-.3-.8-.7-1.2-1l-.6-.5c-.2-.2-.4-.3-.6-.5-.1-.1-.2-.1-.2-.2v.5h.2l.4.4c.1.1.3.2.4.3l.4.4.8.7.3.2s.4.4.6.7c.4.5.2.4-.2.1 0 .1-.8-.6-.8-.6l-.2-.2-.7-.6-.4-.4-.4-.3c-.1-.1-.3-.2-.4-.3v.4l.3.2.3.2c.8.6 1.5 1.3 2.1 2.1l.2.2s.3.3.5.7V19l-.2-.2-.4-.3zm-4.6 6.1v-.9c-.1-.1-.2-.1-.3-.2 0 0-.2-.1-.4-.3l-.4-.3-.2-.2-.9-.9-.2-.2-.1-.2-.1-.1c-.2-.1-.3-.3-.5-.4l-.3-.3v.5c.1.2.3.3.4.4.3.4.7.7 1 1.1l.9 1.1.2.3.2.3c.1.2.3.3.4.5.2.3.2.4.2.4-.1-.1-.3-.1-.4-.2 0 0-.2-.2-.4-.3l-.4-.4V24l-1-1.1c-.3-.4-.7-.7-1-1l-.2-.3v.4l.2.2.2.2c.6.7 1.2 1.4 1.7 2.1l.2.3s.3.5.5.8c.1.1.1.2.2.3h.5c0-.1-.1-.2-.1-.4.1.2.1-.9.1-.9zm-1.4.5l-.1-.2c-.6-.7-1.1-1.4-1.7-2.1l-.1-.1v.5h.1l.4.5c.3.3.5.5.7.8l.2.3s.3.5.5.8c.4.6.1.4-.2.1l-.3-.3-.4-.4-.2-.2c-.2-.3-.5-.5-.7-.8l-.3-.3v.6h.1c.1.2.2.3.3.5l.1.1.2.3.2.3.4.5.1.1H17l-.2-.2c.1 0-.7-.8-.7-.8zm-5.7-2.7l.4.4c.3.3.5.6.7.9l.2.3.2.3c.1.2.2.4.3.5v-.7c0-.1-.2-.2-.2-.2s-.1-.2-.3-.4l-.2-.3-.1-.1-.2-.2c-.1-.2-.3-.3-.4-.5l-.4-.4v-.2h-.6l.2.2.4.4zm11.6-.7s-.2-.1-.4-.3l-.3-.4-.2-.2c-.5-.6-1-1.1-1.5-1.6l-.2-.2v.6h.1c.1.2.2.3.4.5.6.7 1.2 1.4 1.9 2l.2.2s.4.4.6.7l.2.2V21h-.1s-.2-.2-.4-.3l-.4-.4-.2-.2c-.7-.7-1.4-1.4-2.1-2l-.2-.2v.6l.1.1.1.1.2.2c.6.5 1.1 1.1 1.5 1.6l.2.3s.3.5.6.8c.2.3.3.4.2.4-.1-.2-.2-.2-.3-.3zm-10.5 1l.2.3.1.1.1.2.3.6v-1.1h-.1c-.1-.1-.2-.1-.2-.2 0 0-.2-.2-.3-.4l-.2-.2-.1-.1h-.4l-.1.1c.1.1.3.2.4.4l.3.3zm.7-.4c0 .1 0 .1.1.2v-.8c-.1 0-.3.1-.4.1h-.1l.1.1c.1.2.3.4.3.4zM28 24.7v-1.3l-.2-.2c0 .1-.8-.6-.8-.6l-.2-.2-1-.9-.4-.5-.5-.5-.2-.2v.5l.4.4.2.2.2.2.4.4.9.9.2.2s.4.4.6.8c.4.5.2.4-.2.1 0 0-.2-.2-.4-.3l-.4-.3-.2-.2-.8-.8-.4-.4-.2-.3-.2-.2-.2-.2v.7h.2l.2.2.2.2.1.1.1.1.2.2c.2.2.3.3.4.5.3.3.6.7.8 1l.2.3s.4.5.6.8c.2.3.2.4.2.4-.1-.1-.3-.1-.4-.2 0 0-.2-.2-.4-.3l-.4-.4-.2-.2c-.3-.3-.5-.7-.8-1l-.4-.5-.2-.2v-.3h-.1c-.1-.1-.3-.2-.4-.4v.9h.1c.1.2.2.3.4.5s.4.4.5.6l.2.2.2.3c.1.1.3.3.4.5.4.5.2.4-.2.1 0 0-.2-.1-.4-.3l-.4-.3-.2-.2-.6-.6-.2-.3v.5s.1.1.1.2c.1.1.2.3.3.4l.4.4.2.2c.1.1.2.3.2.4.2.3 0 .2-.2.1-.1 0-.1-.1-.2-.1l-.2-.2-.2-.2c-.1-.1-.2-.3-.4-.4l-.2-.2v.6l.1.1.2.2.1.1c0 .1.1.1.1.2h3.6v-.3c-.1 0-.2-1-.2-1zm-15.7.5l-.2-.2s-.2-.2-.3-.4l-.3-.4-.2-.2c-.2-.3-.5-.6-.7-.9-.1-.1-.2-.3-.4-.4l-.4-.4c-.1-.1-.3-.3-.4-.5h-.5c.1.2.2.4.3.5l.5.5c.2.2.3.4.5.5.3.4.6.7.8 1.1l.2.3s.3.5.5.8.2.4.2.4l-.3-.3s-.2-.2-.3-.4l-.3-.4-.2-.2c-.3-.4-.5-.7-.8-1.1-.1-.2-.3-.4-.4-.5s-.5-.3-.6-.5l-.2-.2v.7H9l.1.1c.1.1.2.1.3.2.2.2.4.3.5.5.2.2.3.4.5.5l.2.3.2.3c.1.2.2.4.3.5.2.3.2.4.2.4l-.3-.3s-.2-.2-.3-.4l-.5-.1-.2-.3c-.2-.2-.3-.4-.5-.5l-.5-.5c0-.1 0-.1-.1-.2h-.1v.6h.1c.2.1.3.3.5.4l.1.1.2.3.2.3.4.5c.1.1.1.2.2.3v.1h1.9c0-.1-.1-.2-.1-.4v-.5zm4.4-5.8l.2.3.2.3c.1.2.2.4.4.5v-1.9c-.1 0-.3.1-.4.1h-.2l.1.1c.1.2.3.3.3.3 0 .1.1.2.1.2 0 .2-.1.2-.2.1l-.1-.1H17s-.1-.2-.3-.3l-.2-.2-.1-.1v-.1H16l.2.1c.1.4.3.5.5.7zM9 25.5l-.2-.2v.3l.1.1.2.2v.2h.4l-.1-.1c-.1-.2-.3-.4-.4-.5zm.8-.1l-.2-.3-.1-.1-.2-.2-.1-.1-.3-.3v.4c0 .1.1.2.2.3.1.1.2.1.2.2l.4.4c0 .1.1.2.1.3h.6c-.1-.1-.2-.1-.3-.2 0 0-.2-.2-.3-.4zM27 11l.3.2.2.2c.1.2.3.3.4.5l.1.1v-.8h-.1l-.1-.1-.2-.1-.3-.2c-.1-.1-.2-.2-.3-.2v-.1h-.8l.1.1c.3.1.5.3.7.4zm-2.5.5v.1h.1c.1.1.2.3.4.4.1.1.3.2.5.3l.1.1h.2l.2.2.9.7.3.2s.4.4.7.6h.1v-.9h-.1s-.2-.1-.4-.3l-.5-.2-.2-.2c-.7-.6-1.3-1.2-2.1-1.7l-.2-.2v.9zm.3 2.5l.3.2c.5.4 1.1.8 1.6 1.2l.3.2.7.7c.1.1.1.2.2.3v-.9l-.3-.1-.4-.3-.4-.3-.2-.2c-.5-.4-1.1-.8-1.6-1.1l-.3-.2-.2-.1v.4h.1l.2.2z"/><path class="st1" d="M27.1 16.1l-.4-.3-.2-.2-1.5-1.2-.3-.2-.2-.1v.6h.1l.5.4c.6.4 1.2.9 1.8 1.4l.3.2.7.7.1.1v-1.1c-.1 0-.3-.1-.4-.2-.1.2-.3.1-.5-.1zm-.1-3.9l.3.2.2.2.4.4v-.8l-.2-.2s-.2-.2-.4-.3l-.4-.3-.2-.2c-.2-.2-.4-.3-.5-.4-.2-.1-.3-.2-.5-.3h-.8l.1.1c.6.5 1.3 1.1 2 1.6zm.9-1.4v-.5c-.1.1-.3.1-.4.1l.1.1.3.3zm-2.8 5.4l.2.2.2.2.5.4.9.7.3.2.7.7.1.1v-.9l-.3-.2s-.2-.1-.4-.3l-.5-.3-.2-.2c-.6-.5-1.2-.9-1.8-1.4l-.3-.3v.7h.1c.1.2.3.3.5.4zm-.5 9.8l-.1-.1h-.1v.1l-.1.1h.4-.1V26zm2.1-7.3l.3.2.7.6.2.1v-.8l-.3-.1s-.2-.1-.4-.3l-.4-.3-.2-.1-.9-.7-.4-.4-.2-.2-.2-.2c-.1-.1-.2-.2-.4-.3v.6l.4.4 1.8 1.5zm-6.6 7l-.2-.2-.4-.4-.2-.3v.3l.3.3.3.3c0 .1.1.1.1.2v.1h.5l-.1-.1-.3-.2zm7.2-11.6l-.4-.3-.2-.2-.9-.6-.2-.2h-.2l-.1-.1c-.2-.1-.3-.2-.5-.3-.1-.1-.2-.1-.3-.2v1h.1l.3.2.3.2c.6.3 1.1.7 1.7 1.1l.3.2.7.7.1.1v-1l-.2-.1-.5-.5zm-7.9 1.6c.1.2.2.3.4.4l.3.2.2.1.1.1.1.1.6.5c.4.3.8.7 1.2 1l.3.2.2.2.1.1v-1.8l-.2-.2s-.2-.2-.4-.3l-.3-.2-.1-.1-.2-.2c-.2-.3-.5-.5-.8-.7-.1-.1-.3-.2-.4-.2h-.7l.2.2c.5.5 1.1 1 1.6 1.5l.3.2s.4.4.6.7c.4.5.2.4-.2.1 0 0-.2-.1-.4-.3l-.4-.3-.2-.2c-.5-.5-1.1-1-1.6-1.5l-.4-.4v.1c-.1-.1 0 .4.1.7zm-.1 10l-.1.2-.1.1h.5l-.3-.3zm3.5-1.1v-1.3c-.1-.1-.2-.1-.3-.2 0 0-.2-.1-.4-.3l-.4-.3-.2-.2c-.7-.6-1.3-1.3-1.9-2l-.2-.3v.7h.1l.1.1h.2l.2.2c.5.5 1 1.1 1.6 1.6l.2.2s.4.4.6.8c.4.5.2.4-.2.1 0 0-.2-.1-.4-.3l-.4-.4-.2-.2c-.5-.5-1-1.1-1.6-1.6l-.2-.2h-.2v.8h.1c.2.1.3.3.5.4l.2.2.1.1.1.1.4.5.9 1 .2.3s.4.4.6.8c.4.5.2.4-.2.1 0 0-.2-.1-.4-.3l-.4-.4-.2-.2-.9-1-.2-.5-.1-.1-.1-.1-.2-.2-.3-.3v.8h.2c.1.2.2.3.4.5l.1.1.1.1.1.1.2.2.4.5.2.3.6.8c.2.3.3.4.2.4-.1-.1-.3-.1-.4-.2-.1-.1-.2-.2-.4-.3l-.4-.4-.2-.2-.4-.5-.2-.2-.1-.1V24l-.1-.1c-.1-.1-.2-.2-.3-.4v.9h.1s.1.1.1.2c.1.2.2.3.4.4.1.2.3.3.4.4l.2.2c.1.1.2.3.3.4l.1.1 2.2-.1c0-.1-.1-.2-.1-.4-.2 0-.2-1-.2-1z"/><path class="st1" d="M22.1 15.8l.2.3c.1.2.3.3.4.5v-1.9c-.1 0-.3.1-.4.1H22l.2.3.4.4c0 .1.1.2.1.3.1.2-.1.2-.2.1l-.1-.1-.1-.1s-.3-.3-.3-.4l-.3-.3-.1-.1v-.1h-.5c.3.2.5.4.8.7l.2.3zm5.1 3.6l-.4-.3-.2-.2-1.8-1.5-.2-.2v.6c.1.1.3.2.5.4l.4.3.2.2.2.2c.3.2.5.5.8.7l.3.2.2.2.4.5c.2.2.3.3.2.3-.1 0-.3-.1-.4-.2 0 0-.2-.1-.4-.3l-.4-.3-.2-.2c-.3-.2-.5-.5-.8-.7l-.2-.1-.2-.2-.4-.3-.2-.2v.4l.5.4c.6.5 1.1 1 1.7 1.5l.3.2.2.2.5.4c.5.5.2.4-.1.2l-.4-.2-.4-.3-.2-.2c-.6-.5-1.2-1-1.7-1.5l-.2-.2v.5h.1l.4.4.5.5.5.5 1 .9.3.2s.4.4.6.7l.1.1v-3.3c-.1 0-.2-.1-.3-.1-.4.1-.6 0-.8-.2z"/><path class="st2" d="M69.4 22.3h-1.3v2.3h1.3c.8 0 1.4-.3 1.4-1.2 0-.7-.5-1.1-1.4-1.1zM77.5 11s-.3.7-.5 1.4l-.7 1.7h2.4l-.7-1.7c-.3-.7-.5-1.3-.5-1.4zm7.9 4.7h.2c1.4 0 2.6-1.1 2.6-2.5s-1.1-2.6-2.5-2.6-2.6 1.1-2.6 2.5v.1c0 1.3 1 2.5 2.3 2.5zm-8.3 7s-.3.7-.5 1.4l-.7 1.7h2.4l-.6-1.8c-.3-.6-.6-1.3-.6-1.3zm40.6 0s-.3.7-.5 1.4l-.7 1.7h2.4l-.7-1.7c-.2-.7-.5-1.4-.5-1.4z"/><path d="M70.1 17.3h1.6V11h2.4V9.5h-6.4V11h2.4zm-6-1.2c-1 0-1.6-.4-1.8-1.2l-1.5.4c.4 1.7 1.9 2.1 3.2 2.1 1.8 0 2.9-.8 2.9-2.3 0-1.7-1.4-2.2-2.5-2.3-1.1-.2-1.9-.4-1.9-1.1 0-.5.4-.9 1.2-.9.7-.1 1.4.3 1.6 1l1.5-.4c-.4-1.3-1.7-2.1-3-2-1.7 0-2.8.7-2.8 2.3 0 1.6 1.4 2.1 2.4 2.3 1 .2 2 .2 2 1.1.1.6-.3 1-1.3 1zm12.5-6.6l-3.1 7.8h1.6l.6-1.6h3.5l.5 1.5h1.7l-3.1-7.7zm-16.5 6.3h-4V14h3v-1.4h-3V11h4V9.5h-5.6v7.7h5.6zm-6.8 1.5V13h-3.5v1.4h2v.6c-.5.7-1.4 1-2.2 1h-.3c-1.3-.1-2.3-1.3-2.3-2.6v-.3c0-1.3 1.1-2.3 2.4-2.3.9 0 1.7.4 2.1 1.2l1.5-.4c-.6-1.4-2.1-2.2-3.6-2.2-2.2 0-4 1.8-4 4s1.8 4 4 4c.9 0 1.7-.3 2.4-.9v.7l1.5.1zm-5.8 8.3h3v-1.4h-3v-1.6h3.9v-1.5h-5.5v7.8h5.6v-1.5h-4zm-16.6.5c-.4-.1-.9-.1-.9-.1h-1.8v-.3c.1-.4.1-1 .1-1V10.2c-.2-.2-.3-.1-.4 0-.1 0-.3-.1-.4-.1h-.2c-.4 0-.8-.1-.8-.1h-2.3c-.2.2-.1.3 0 .3-.1.4-.1 1-.1 1v14.4l.1.1h-1.3c0-.1.1-.2.1-.4.1-.4.1-1 .1-1V19c.2.1.3.1 0-.2v-4.4c-.2-.2-.3-.1-.4 0-.1 0-.3-.1-.4-.1-.4-.1-1-.1-1-.1H19c-.2.2-.1.3 0 .3h.1v.1c-.1.4-.1 1-.1 1v10.1l.1.1h-1.4c0-.1.1-.2.1-.4.1-.4.1-1 .1-1v-6.1c-.2-.2-.3-.1-.4 0-.1 0-.3-.1-.4-.1-.4-.1-1-.1-1-.1h-2.4c-.2.2-.1.3 0 .3h.1v.1c-.1.4-.1 1-.1 1v6.2l.1.1h-1.3c0-.1.1-.2.1-.4.1-.4.1-1 .1-1v-3c-.2-.2-.3-.1-.4 0-.1 0-.3-.1-.4-.1-.4-.1-1-.1-1-.1H8.5c-.2.2-.1.3 0 .3h.1v.1c-.1.4-.1 1-.1 1v1.8h-.1l.1.2v1.1l.1.1H5.2c-.2.2-.1.3 0 .3h24.7l1 .1c.5 0 .7-.1 0-.1zm61.5-7l-1.2-.4-1.2 1.9h1.3zM75.7 8.8s-.1 0 0 0zm.9-.3c.7 0 1.1.3 1.8.3.4 0 .7-.1 1-.3l-.2-1.1c-.3.2-.6.3-.9.3-.7 0-1.1-.3-1.8-.3-.4 0-.7.1-1 .4l.2 1.1c.2-.3.6-.5.9-.4zm9 8.9c2.2 0 4-1.8 4.1-4 0-2.2-1.8-4-4-4h-.3c-2.1.1-3.8 1.9-3.7 4-.1 2.2 1.7 4 3.9 4zm-29.6 7c-1.1-.2-1.9-.4-1.9-1.1 0-.5.4-.9 1.2-.9.7-.1 1.4.3 1.6 1l1.5-.4c-.4-1.3-1.7-2.1-3-2-1.7 0-2.8.7-2.8 2.3s1.4 2.1 2.4 2.3 2 .2 2 1.1c0 .6-.4.9-1.4.9-1 0-1.6-.4-1.8-1.2l-1.5.4c.4 1.7 1.9 2.1 3.2 2.1 1.8 0 2.9-.8 2.9-2.3 0-1.5-1.4-2-2.4-2.2zm55 2.7c-1.2.8-2.8.4-3.6-.8-.8-1.2-.4-2.8.8-3.5 1.2-.8 2.8-.4 3.6.8l1.5-.4c-.6-1.4-2.1-2.2-3.6-2.2-1.6 0-3 .9-3.6 2.3-.9 2 0 4.4 2 5.3 2 .9 4.4 0 5.3-2l-1.5-.4c-.3.4-.6.7-.9.9zm-7.9-6h1.5v7.7h-1.5zM59 22.6h2.5v6.3H63v-6.3h2.5v-1.5H59zM98.3 26h2.1v.6c-.5.7-1.4 1-2.2 1h-.3c-1.3-.1-2.4-1.2-2.3-2.6v-.3c0-1.3 1.1-2.3 2.4-2.3.9 0 1.7.4 2.1 1.2l1.5-.4C101 21.8 99.5 21 98 21c-2.2 0-4 1.8-4 4s1.8 4 4 4c.9 0 1.7-.3 2.4-.9v.7h1.4v-4.3h-3.5V26zm18.5-4.8l-3.1 7.7h1.7l.5-1.6h3.5l.6 1.6h1.7l-3.1-7.7zm-27.3 4.4h3v-1.4h-3v-1.6h3.9v-1.5H88l-.1 7.8h5.6v-1.5h-4zm-13.3-4.5l-3.1 7.8h1.7l.6-1.6h3.5l.5 1.6h1.7L78 21.1zm-3.9 2.6c0-1.6-1.1-2.5-3-2.5h-2.7v7.7h1.5v-2.7h1.1l1.5 2.7h1.8l-1.8-3c1-.3 1.7-1.2 1.6-2.2zm8.1-1.1h2.4v6.3h1.6v-6.3h2.5v-1.5h-6.5z" fill="none"/><path class="st1" d="M32.4.1H4.6C2.1.1 0 2.1 0 4.6v27.2c0 2.5 2.1 4.5 4.6 4.5h32.5V.1h-4.7zm-1.5 26.2l-1-.1H5.2c-.1-.1-.2-.2 0-.3h3.3l-.1-.1v-1.1l-.1-.2h.1v-1.8s0-.6.1-1v-.1c-.1-.1-.2-.2 0-.3h2.4s.6 0 1 .1c.1 0 .3 0 .4.1 0-.1.2-.2.4 0v3s0 .6-.1 1c0 .1 0 .2-.1.4h1.3l-.1-.1v-6.2s0-.6.1-1v-.1h-.1c-.1-.1-.2-.2 0-.3h2.4s.6 0 1 .1c.1 0 .3 0 .4.1 0-.1.2-.2.4 0v6.1s0 .6-.1 1c0 .1 0 .2-.1.4h1.4l-.1-.1V15.7s0-.6.1-1v-.1H19c-.1-.1-.2-.2 0-.3h2.3s.6 0 1 .1c.1 0 .3 0 .4.1.1-.1.2-.2.4 0v4.4c.3.4.2.4 0 .2v5.4s0 .6-.1 1c0 .1 0 .2-.1.4h1.3l-.1-.1V11.4s0-.6.1-1c-.1-.1-.2-.2 0-.3h2.3s.4 0 .8.1h.2c.1 0 .3 0 .4.1.1-.1.2-.2.4 0v14.4s0 .6-.1 1v.3H30s.6 0 1 .1c.6 0 .4.1-.1.2zM40.6.1h-.4.4zm-.4 36.1h.4-.4z"/><path class="st2" d="M126.5.1H40.2V0h-3v36.4h3v-.1h86.4c1.9 0 3.5-1.6 3.5-3.5V3.6c-.1-2-1.7-3.5-3.6-3.5zM91.2 18.7l1.2.4-1 1.5H90l1.2-1.9zm-5.9-9.3h.3c2.2 0 4 1.8 4 4s-1.8 4-4.1 4c-2.2 0-4-1.8-4-4 0-2.1 1.7-3.9 3.8-4zm-8.9-2.1c.7 0 1.1.3 1.8.3.3 0 .6-.1.9-.3l.2 1.1c-.3.2-.6.4-1 .3-.7 0-1.1-.3-1.8-.3-.3 0-.7.1-.9.3l-.2-1.1c.3-.2.7-.3 1-.3zm5 9.9h-1.6l-.6-1.5h-3.5l-.6 1.5h-1.6l3.1-7.7h1.7l3.1 7.7zM67.7 9.5h6.5V11h-2.5v6.3h-1.5V11h-2.5V9.5zM63.5 14c-1-.2-2.4-.7-2.4-2.3 0-1.6 1.1-2.3 2.8-2.3 1.4-.2 2.6.7 3 2l-1.5.4c-.2-.7-.9-1.1-1.6-1-.9 0-1.2.3-1.2.9 0 .8.8.9 1.9 1.1 1.1.2 2.5.7 2.5 2.3 0 1.5-1.1 2.3-2.9 2.3-1.3 0-2.8-.4-3.2-2.1l1.5-.4c.1.8.8 1.2 1.8 1.2s1.4-.3 1.4-.9c-.1-1-1.1-1-2.1-1.2zm-9-4.5H60V11h-4v1.6h3V14h-3v1.8h4v1.4h-5.5V9.5zm-3 19.4H46v-7.7h5.5v1.4h-3.9v1.6h3v1.4h-3v1.8h4v1.5zm-2-11.5c-2.2 0-4-1.8-4-4s1.8-4 4-4c1.5-.1 2.9.8 3.6 2.2l-1.5.4c-.4-.8-1.3-1.2-2.1-1.2-1.3 0-2.4 1-2.4 2.3v.3c-.1 1.3.9 2.5 2.2 2.6h.3c.9 0 1.7-.3 2.2-1v-.6h-2V13h3.5v4.3h-1.4v-.7c-.6.5-1.5.8-2.4.8zm6 11.6c-1.3 0-2.8-.4-3.2-2.1l1.5-.4c.1.8.8 1.2 1.8 1.2s1.4-.3 1.4-.9c0-.9-1-.9-2-1.1s-2.4-.7-2.4-2.3 1.1-2.3 2.8-2.3c1.4-.2 2.6.7 3 2l-1.5.4c-.2-.7-.9-1.1-1.6-1-.9 0-1.2.3-1.2.9 0 .8.8.9 1.9 1.1 1.1.2 2.5.7 2.5 2.3-.1 1.5-1.2 2.2-3 2.2zm10-6.4h-2.4v6.3h-1.5v-6.3H59v-1.4h6.4v1.4zm5.3 6.2l-1.5-2.7h-1.1v2.7h-1.5v-7.7h2.7c1.9 0 3 .9 3 2.5.1 1-.6 1.9-1.6 2.2l1.8 3h-1.8zm8.6.1l-.6-1.5h-3.5l-.6 1.5h-1.6l3.1-7.7H78l3.1 7.7h-1.7zm7.5-6.3h-2.5v6.3h-1.5v-6.3h-2.4v-1.4H87v1.4zm6.6 6.3H88v-7.7h5.5v1.4h-4v1.6h3v1.4h-3v1.8h4v1.5zm8.3 0h-1.4v-.7c-.6.5-1.4.8-2.3.8-2.2 0-4-1.8-4-4s1.8-4 4-4c1.5-.1 2.9.8 3.6 2.2l-1.5.4c-.4-.8-1.3-1.2-2.1-1.2-1.3 0-2.4 1-2.4 2.3v.3c-.1 1.3.9 2.5 2.3 2.6h.3c.9 0 1.7-.3 2.2-1V26h-2.1v-1.4h3.5v4.3zm2.8 0h-1.5v-7.7h1.5v7.7zm3.4-.3c-2-.9-2.9-3.3-2-5.3.6-1.4 2.1-2.3 3.6-2.3 1.5-.1 2.9.8 3.6 2.2l-1.5.4c-.8-1.2-2.4-1.5-3.6-.8-1.2.8-1.5 2.4-.8 3.5.8 1.2 2.4 1.5 3.6.8.4-.2.7-.6.9-.9l1.5.4c-.9 2-3.2 2.9-5.3 2zm12 .3l-.6-1.5h-3.5l-.6 1.5h-1.6l3.1-7.7h1.7l3.1 7.7H120z"/></svg>